<svg width="519" height="388" viewBox="0 0 519 388" fill="none" xmlns="http://www.w3.org/2000/svg">
<path d="M216.451 43.2539H154.952V104.753" stroke="#53C8BC" stroke-width="1.67724" stroke-linecap="round" stroke-linejoin="round" stroke-dasharray="4.47 4.47"/>
<g filter="url(#filter0_d_8553_9317)">
<rect x="211.978" y="3" width="82.744" height="82.744" rx="12.2998" fill="#D2F67B"/>
</g>
<g filter="url(#filter1_d_8553_9317)">
<rect x="4" y="256.823" width="82.744" height="82.744" rx="12.2998" fill="#D2F67B"/>
</g>
<g filter="url(#filter2_d_8553_9317)">
<rect x="432.256" y="256.823" width="82.744" height="82.744" rx="12.2998" fill="#D2F67B"/>
</g>
<path d="M270.923 58.9477V59.3173L271.168 59.0402C274.747 54.9846 276.92 49.6561 276.92 43.8127C276.92 31.0909 266.631 20.8015 253.909 20.8015C241.187 20.8015 230.898 31.0909 230.898 43.8127C230.898 49.6564 233.071 54.9846 236.651 59.0402L236.896 59.3173V58.9477V55.2488C236.896 50.9112 240.423 47.3837 244.761 47.3837H263.058C267.396 47.3837 270.923 50.9112 270.923 55.2488V58.9477ZM268.866 61.3045L268.915 61.2626V61.1982V55.2483C268.915 51.9835 266.322 49.3906 263.058 49.3906H244.76C241.496 49.3906 238.903 51.9835 238.903 55.2483V61.1982V61.2626L238.952 61.3045C242.972 64.7439 248.195 66.8238 253.909 66.8238C259.623 66.8238 264.846 64.7434 268.866 61.3045ZM228.89 43.8129C228.89 30.009 240.105 18.7941 253.909 18.7941C267.713 18.7941 278.928 30.009 278.928 43.8129C278.928 57.6169 267.713 68.8318 253.909 68.8318C240.105 68.8318 228.89 57.6169 228.89 43.8129ZM243.757 34.0924C243.757 28.4988 248.316 23.9399 253.909 23.9399C259.503 23.9399 264.062 28.4987 264.062 34.0924C264.062 39.6859 259.503 44.2448 253.909 44.2448C248.316 44.2448 243.757 39.686 243.757 34.0924ZM262.054 34.0919C262.054 29.5804 258.421 25.9474 253.909 25.9474C249.398 25.9474 245.765 29.5799 245.765 34.0919C245.765 38.6034 249.397 42.2365 253.909 42.2365C258.421 42.2365 262.054 38.604 262.054 34.0919Z" fill="#191919" stroke="#191919" stroke-width="0.27954"/>
<path d="M298.602 42.6609C298.274 42.9884 298.274 43.5194 298.602 43.8469L303.939 49.1839C304.266 49.5114 304.797 49.5114 305.125 49.1839C305.452 48.8564 305.452 48.3254 305.125 47.9979L300.381 43.2539L305.125 38.5099C305.452 38.1824 305.452 37.6515 305.125 37.324C304.797 36.9965 304.266 36.9965 303.939 37.324L298.602 42.6609ZM361.812 43.2539H362.651C362.651 42.7907 362.275 42.4153 361.812 42.4153V43.2539ZM360.973 105.871C360.973 106.334 361.349 106.71 361.812 106.71C362.275 106.71 362.651 106.334 362.651 105.871H360.973ZM301.431 44.0925C301.894 44.0925 302.27 43.7171 302.27 43.2539C302.27 42.7907 301.894 42.4153 301.431 42.4153V44.0925ZM305.904 42.4153C305.441 42.4153 305.065 42.7907 305.065 43.2539C305.065 43.7171 305.441 44.0925 305.904 44.0925V42.4153ZM310.376 44.0925C310.84 44.0925 311.215 43.7171 311.215 43.2539C311.215 42.7907 310.84 42.4153 310.376 42.4153V44.0925ZM314.849 42.4153C314.386 42.4153 314.01 42.7907 314.01 43.2539C314.01 43.7171 314.386 44.0925 314.849 44.0925V42.4153ZM319.322 44.0925C319.785 44.0925 320.16 43.7171 320.16 43.2539C320.16 42.7907 319.785 42.4153 319.322 42.4153V44.0925ZM323.794 42.4153C323.331 42.4153 322.956 42.7907 322.956 43.2539C322.956 43.7171 323.331 44.0925 323.794 44.0925V42.4153ZM328.267 44.0925C328.73 44.0925 329.106 43.7171 329.106 43.2539C329.106 42.7907 328.73 42.4153 328.267 42.4153V44.0925ZM332.74 42.4153C332.277 42.4153 331.901 42.7907 331.901 43.2539C331.901 43.7171 332.277 44.0925 332.74 44.0925V42.4153ZM337.212 44.0925C337.675 44.0925 338.051 43.7171 338.051 43.2539C338.051 42.7907 337.675 42.4153 337.212 42.4153V44.0925ZM341.685 42.4153C341.222 42.4153 340.846 42.7907 340.846 43.2539C340.846 43.7171 341.222 44.0925 341.685 44.0925V42.4153ZM346.158 44.0925C346.621 44.0925 346.996 43.7171 346.996 43.2539C346.996 42.7907 346.621 42.4153 346.158 42.4153V44.0925ZM350.63 42.4153C350.167 42.4153 349.792 42.7907 349.792 43.2539C349.792 43.7171 350.167 44.0925 350.63 44.0925V42.4153ZM355.103 44.0925C355.566 44.0925 355.942 43.7171 355.942 43.2539C355.942 42.7907 355.566 42.4153 355.103 42.4153V44.0925ZM359.576 42.4153C359.112 42.4153 358.737 42.7907 358.737 43.2539C358.737 43.7171 359.112 44.0925 359.576 44.0925V42.4153ZM360.973 45.4902C360.973 45.9534 361.349 46.3289 361.812 46.3289C362.275 46.3289 362.651 45.9534 362.651 45.4902H360.973ZM362.651 49.9629C362.651 49.4997 362.275 49.1243 361.812 49.1243C361.349 49.1243 360.973 49.4997 360.973 49.9629H362.651ZM360.973 54.4355C360.973 54.8987 361.349 55.2741 361.812 55.2741C362.275 55.2741 362.651 54.8987 362.651 54.4355H360.973ZM362.651 58.9082C362.651 58.445 362.275 58.0696 361.812 58.0696C361.349 58.0696 360.973 58.445 360.973 58.9082H362.651ZM360.973 63.3808C360.973 63.844 361.349 64.2194 361.812 64.2194C362.275 64.2194 362.651 63.844 362.651 63.3808H360.973ZM362.651 67.8535C362.651 67.3903 362.275 67.0148 361.812 67.0148C361.349 67.0148 360.973 67.3903 360.973 67.8535H362.651ZM360.973 72.3261C360.973 72.7893 361.349 73.1647 361.812 73.1647C362.275 73.1647 362.651 72.7893 362.651 72.3261H360.973ZM362.651 76.7988C362.651 76.3356 362.275 75.9601 361.812 75.9601C361.349 75.9601 360.973 76.3356 360.973 76.7988H362.651ZM360.973 81.2714C360.973 81.7346 361.349 82.11 361.812 82.11C362.275 82.11 362.651 81.7346 362.651 81.2714H360.973ZM362.651 85.7441C362.651 85.2809 362.275 84.9054 361.812 84.9054C361.349 84.9054 360.973 85.2809 360.973 85.7441H362.651ZM360.973 90.2167C360.973 90.6799 361.349 91.0553 361.812 91.0553C362.275 91.0553 362.651 90.6799 362.651 90.2167H360.973ZM362.651 94.6894C362.651 94.2262 362.275 93.8507 361.812 93.8507C361.349 93.8507 360.973 94.2262 360.973 94.6894H362.651ZM360.973 99.162C360.973 99.6252 361.349 100.001 361.812 100.001C362.275 100.001 362.651 99.6252 362.651 99.162H360.973ZM362.651 103.635C362.651 103.172 362.275 102.796 361.812 102.796C361.349 102.796 360.973 103.172 360.973 103.635H362.651ZM299.195 44.0925H301.431V42.4153H299.195V44.0925ZM305.904 44.0925H310.376V42.4153H305.904V44.0925ZM314.849 44.0925H319.322V42.4153H314.849V44.0925ZM323.794 44.0925H328.267V42.4153H323.794V44.0925ZM332.74 44.0925H337.212V42.4153H332.74V44.0925ZM341.685 44.0925H346.158V42.4153H341.685V44.0925ZM350.63 44.0925H355.103V42.4153H350.63V44.0925ZM359.576 44.0925H361.812V42.4153H359.576V44.0925ZM360.973 43.2539V45.4902H362.651V43.2539H360.973ZM360.973 49.9629V54.4355H362.651V49.9629H360.973ZM360.973 58.9082V63.3808H362.651V58.9082H360.973ZM360.973 67.8535V72.3261H362.651V67.8535H360.973ZM360.973 76.7988V81.2714H362.651V76.7988H360.973ZM360.973 85.7441V90.2167H362.651V85.7441H360.973ZM360.973 94.6894V99.162H362.651V94.6894H360.973ZM360.973 103.635V105.871H362.651V103.635H360.973Z" fill="#53C8BC"/>
<path d="M155.791 117.053C155.791 116.59 155.415 116.214 154.952 116.214C154.489 116.214 154.114 116.59 154.114 117.053H155.791ZM154.952 170.725H154.114C154.114 171.188 154.489 171.563 154.952 171.563V170.725ZM209.217 171.317C209.544 170.99 209.544 170.459 209.217 170.132L203.88 164.795C203.552 164.467 203.021 164.467 202.694 164.795C202.366 165.122 202.366 165.653 202.694 165.981L207.438 170.725L202.694 175.468C202.366 175.796 202.366 176.327 202.694 176.654C203.021 176.982 203.552 176.982 203.88 176.654L209.217 171.317ZM154.114 119.289C154.114 119.752 154.489 120.128 154.952 120.128C155.415 120.128 155.791 119.752 155.791 119.289H154.114ZM155.791 123.762C155.791 123.299 155.415 122.923 154.952 122.923C154.489 122.923 154.114 123.299 154.114 123.762H155.791ZM154.114 128.234C154.114 128.698 154.489 129.073 154.952 129.073C155.415 129.073 155.791 128.698 155.791 128.234H154.114ZM155.791 132.707C155.791 132.244 155.415 131.868 154.952 131.868C154.489 131.868 154.114 132.244 154.114 132.707H155.791ZM154.114 137.18C154.114 137.643 154.489 138.018 154.952 138.018C155.415 138.018 155.791 137.643 155.791 137.18H154.114ZM155.791 141.652C155.791 141.189 155.415 140.814 154.952 140.814C154.489 140.814 154.114 141.189 154.114 141.652H155.791ZM154.114 146.125C154.114 146.588 154.489 146.964 154.952 146.964C155.415 146.964 155.791 146.588 155.791 146.125H154.114ZM155.791 150.598C155.791 150.134 155.415 149.759 154.952 149.759C154.489 149.759 154.114 150.134 154.114 150.598H155.791ZM154.114 155.07C154.114 155.533 154.489 155.909 154.952 155.909C155.415 155.909 155.791 155.533 155.791 155.07H154.114ZM155.791 159.543C155.791 159.08 155.415 158.704 154.952 158.704C154.489 158.704 154.114 159.08 154.114 159.543H155.791ZM154.114 164.016C154.114 164.479 154.489 164.854 154.952 164.854C155.415 164.854 155.791 164.479 155.791 164.016H154.114ZM155.791 168.488C155.791 168.025 155.415 167.65 154.952 167.65C154.489 167.65 154.114 168.025 154.114 168.488H155.791ZM157.188 171.563C157.652 171.563 158.027 171.188 158.027 170.725C158.027 170.261 157.652 169.886 157.188 169.886V171.563ZM161.661 169.886C161.198 169.886 160.822 170.261 160.822 170.725C160.822 171.188 161.198 171.563 161.661 171.563V169.886ZM166.134 171.563C166.597 171.563 166.972 171.188 166.972 170.725C166.972 170.261 166.597 169.886 166.134 169.886V171.563ZM170.606 169.886C170.143 169.886 169.768 170.261 169.768 170.725C169.768 171.188 170.143 171.563 170.606 171.563V169.886ZM175.079 171.563C175.542 171.563 175.918 171.188 175.918 170.725C175.918 170.261 175.542 169.886 175.079 169.886V171.563ZM179.552 169.886C179.089 169.886 178.713 170.261 178.713 170.725C178.713 171.188 179.089 171.563 179.552 171.563V169.886ZM184.024 171.563C184.488 171.563 184.863 171.188 184.863 170.725C184.863 170.261 184.488 169.886 184.024 169.886V171.563ZM188.497 169.886C188.034 169.886 187.658 170.261 187.658 170.725C187.658 171.188 188.034 171.563 188.497 171.563V169.886ZM192.97 171.563C193.433 171.563 193.808 171.188 193.808 170.725C193.808 170.261 193.433 169.886 192.97 169.886V171.563ZM197.442 169.886C196.979 169.886 196.604 170.261 196.604 170.725C196.604 171.188 196.979 171.563 197.442 171.563V169.886ZM201.915 171.563C202.378 171.563 202.754 171.188 202.754 170.725C202.754 170.261 202.378 169.886 201.915 169.886V171.563ZM206.388 169.886C205.924 169.886 205.549 170.261 205.549 170.725C205.549 171.188 205.924 171.563 206.388 171.563V169.886ZM154.114 117.053V119.289H155.791V117.053H154.114ZM154.114 123.762V128.234H155.791V123.762H154.114ZM154.114 132.707V137.18H155.791V132.707H154.114ZM154.114 141.652V146.125H155.791V141.652H154.114ZM154.114 150.598V155.07H155.791V150.598H154.114ZM154.114 159.543V164.016H155.791V159.543H154.114ZM154.114 168.488V170.725H155.791V168.488H154.114ZM154.952 171.563H157.188V169.886H154.952V171.563ZM161.661 171.563H166.134V169.886H161.661V171.563ZM170.606 171.563H175.079V169.886H170.606V171.563ZM179.552 171.563H184.024V169.886H179.552V171.563ZM188.497 171.563H192.97V169.886H188.497V171.563ZM197.442 171.563H201.915V169.886H197.442V171.563ZM206.388 171.563H208.624V169.886H206.388V171.563Z" fill="#53C8BC"/>
<path d="M361.812 170.725V171.563C362.275 171.563 362.651 171.188 362.651 170.725H361.812ZM362.651 117.053C362.651 116.59 362.275 116.214 361.812 116.214C361.349 116.214 360.973 116.59 360.973 117.053H362.651ZM294.652 171.563C295.115 171.563 295.491 171.188 295.491 170.725C295.491 170.261 295.115 169.886 294.652 169.886V171.563ZM298.985 169.886C298.522 169.886 298.147 170.261 298.147 170.725C298.147 171.188 298.522 171.563 298.985 171.563V169.886ZM303.318 171.563C303.781 171.563 304.157 171.188 304.157 170.725C304.157 170.261 303.781 169.886 303.318 169.886V171.563ZM307.651 169.886C307.188 169.886 306.812 170.261 306.812 170.725C306.812 171.188 307.188 171.563 307.651 171.563V169.886ZM311.984 171.563C312.447 171.563 312.822 171.188 312.822 170.725C312.822 170.261 312.447 169.886 311.984 169.886V171.563ZM316.317 169.886C315.854 169.886 315.478 170.261 315.478 170.725C315.478 171.188 315.854 171.563 316.317 171.563V169.886ZM320.65 171.563C321.113 171.563 321.488 171.188 321.488 170.725C321.488 170.261 321.113 169.886 320.65 169.886V171.563ZM324.982 169.886C324.519 169.886 324.144 170.261 324.144 170.725C324.144 171.188 324.519 171.563 324.982 171.563V169.886ZM329.315 171.563C329.778 171.563 330.154 171.188 330.154 170.725C330.154 170.261 329.778 169.886 329.315 169.886V171.563ZM333.648 169.886C333.185 169.886 332.81 170.261 332.81 170.725C332.81 171.188 333.185 171.563 333.648 171.563V169.886ZM337.981 171.563C338.444 171.563 338.82 171.188 338.82 170.725C338.82 170.261 338.444 169.886 337.981 169.886V171.563ZM342.314 169.886C341.851 169.886 341.475 170.261 341.475 170.725C341.475 171.188 341.851 171.563 342.314 171.563V169.886ZM346.647 171.563C347.11 171.563 347.485 171.188 347.485 170.725C347.485 170.261 347.11 169.886 346.647 169.886V171.563ZM350.98 169.886C350.517 169.886 350.141 170.261 350.141 170.725C350.141 171.188 350.517 171.563 350.98 171.563V169.886ZM355.313 171.563C355.776 171.563 356.151 171.188 356.151 170.725C356.151 170.261 355.776 169.886 355.313 169.886V171.563ZM359.645 169.886C359.182 169.886 358.807 170.261 358.807 170.725C358.807 171.188 359.182 171.563 359.645 171.563V169.886ZM362.651 168.488C362.651 168.025 362.275 167.65 361.812 167.65C361.349 167.65 360.973 168.025 360.973 168.488H362.651ZM360.973 164.016C360.973 164.479 361.349 164.854 361.812 164.854C362.275 164.854 362.651 164.479 362.651 164.016H360.973ZM362.651 159.543C362.651 159.08 362.275 158.704 361.812 158.704C361.349 158.704 360.973 159.08 360.973 159.543H362.651ZM360.973 155.07C360.973 155.533 361.349 155.909 361.812 155.909C362.275 155.909 362.651 155.533 362.651 155.07H360.973ZM362.651 150.598C362.651 150.134 362.275 149.759 361.812 149.759C361.349 149.759 360.973 150.134 360.973 150.598H362.651ZM360.973 146.125C360.973 146.588 361.349 146.964 361.812 146.964C362.275 146.964 362.651 146.588 362.651 146.125H360.973ZM362.651 141.652C362.651 141.189 362.275 140.814 361.812 140.814C361.349 140.814 360.973 141.189 360.973 141.652H362.651ZM360.973 137.18C360.973 137.643 361.349 138.018 361.812 138.018C362.275 138.018 362.651 137.643 362.651 137.18H360.973ZM362.651 132.707C362.651 132.244 362.275 131.868 361.812 131.868C361.349 131.868 360.973 132.244 360.973 132.707H362.651ZM360.973 128.234C360.973 128.698 361.349 129.073 361.812 129.073C362.275 129.073 362.651 128.698 362.651 128.234H360.973ZM362.651 123.762C362.651 123.299 362.275 122.923 361.812 122.923C361.349 122.923 360.973 123.299 360.973 123.762H362.651ZM360.973 119.289C360.973 119.752 361.349 120.128 361.812 120.128C362.275 120.128 362.651 119.752 362.651 119.289H360.973ZM292.486 171.563H294.652V169.886H292.486V171.563ZM298.985 171.563H303.318V169.886H298.985V171.563ZM307.651 171.563H311.984V169.886H307.651V171.563ZM316.317 171.563H320.65V169.886H316.317V171.563ZM324.982 171.563H329.315V169.886H324.982V171.563ZM333.648 171.563H337.981V169.886H333.648V171.563ZM342.314 171.563H346.647V169.886H342.314V171.563ZM350.98 171.563H355.313V169.886H350.98V171.563ZM359.645 171.563H361.812V169.886H359.645V171.563ZM362.651 170.725V168.488H360.973V170.725H362.651ZM362.651 164.016V159.543H360.973V164.016H362.651ZM362.651 155.07V150.598H360.973V155.07H362.651ZM362.651 146.125V141.652H360.973V146.125H362.651ZM362.651 137.18V132.707H360.973V137.18H362.651ZM362.651 128.234V123.762H360.973V128.234H362.651ZM362.651 119.289V117.053H360.973V119.289H362.651Z" fill="#53C8BC"/>
<path d="M213.097 191.969H154.952V238.932" stroke="#2CC68F" stroke-width="1.67724" stroke-linecap="round" stroke-linejoin="round" stroke-dasharray="4.47 4.47"/>
<path d="M293.604 191.969H361.812V238.932" stroke="#2CC68F" stroke-width="1.67724" stroke-linecap="round" stroke-linejoin="round" stroke-dasharray="4.47 4.47"/>
<path d="M155.791 257.941C155.791 257.478 155.415 257.102 154.952 257.102C154.489 257.102 154.113 257.478 154.113 257.941H155.791ZM154.952 298.195V299.033C155.415 299.033 155.791 298.658 155.791 298.195H154.952ZM91.742 297.602C91.4145 297.929 91.4145 298.46 91.742 298.788L97.0789 304.125C97.4064 304.452 97.9374 304.452 98.2649 304.125C98.5924 303.797 98.5924 303.266 98.2649 302.939L93.521 298.195L98.2649 293.451C98.5924 293.123 98.5924 292.592 98.2649 292.265C97.9374 291.937 97.4064 291.937 97.0789 292.265L91.742 297.602ZM94.5713 299.033C95.0344 299.033 95.4099 298.658 95.4099 298.195C95.4099 297.732 95.0344 297.356 94.5713 297.356V299.033ZM99.0439 297.356C98.5808 297.356 98.2053 297.732 98.2053 298.195C98.2053 298.658 98.5808 299.033 99.0439 299.033V297.356ZM103.517 299.033C103.98 299.033 104.355 298.658 104.355 298.195C104.355 297.732 103.98 297.356 103.517 297.356V299.033ZM107.989 297.356C107.526 297.356 107.151 297.732 107.151 298.195C107.151 298.658 107.526 299.033 107.989 299.033V297.356ZM112.462 299.033C112.925 299.033 113.3 298.658 113.3 298.195C113.3 297.732 112.925 297.356 112.462 297.356V299.033ZM116.935 297.356C116.471 297.356 116.096 297.732 116.096 298.195C116.096 298.658 116.471 299.033 116.935 299.033V297.356ZM121.407 299.033C121.87 299.033 122.246 298.658 122.246 298.195C122.246 297.732 121.87 297.356 121.407 297.356V299.033ZM125.88 297.356C125.417 297.356 125.041 297.732 125.041 298.195C125.041 298.658 125.417 299.033 125.88 299.033V297.356ZM130.352 299.033C130.816 299.033 131.191 298.658 131.191 298.195C131.191 297.732 130.816 297.356 130.352 297.356V299.033ZM134.825 297.356C134.362 297.356 133.986 297.732 133.986 298.195C133.986 298.658 134.362 299.033 134.825 299.033V297.356ZM139.298 299.033C139.761 299.033 140.136 298.658 140.136 298.195C140.136 297.732 139.761 297.356 139.298 297.356V299.033ZM143.77 297.356C143.307 297.356 142.932 297.732 142.932 298.195C142.932 298.658 143.307 299.033 143.77 299.033V297.356ZM148.243 299.033C148.706 299.033 149.082 298.658 149.082 298.195C149.082 297.732 148.706 297.356 148.243 297.356V299.033ZM152.716 297.356C152.253 297.356 151.877 297.732 151.877 298.195C151.877 298.658 152.253 299.033 152.716 299.033V297.356ZM155.791 296.182C155.791 295.719 155.415 295.343 154.952 295.343C154.489 295.343 154.113 295.719 154.113 296.182H155.791ZM154.113 292.157C154.113 292.62 154.489 292.995 154.952 292.995C155.415 292.995 155.791 292.62 155.791 292.157H154.113ZM155.791 288.131C155.791 287.668 155.415 287.293 154.952 287.293C154.489 287.293 154.113 287.668 154.113 288.131H155.791ZM154.113 284.106C154.113 284.569 154.489 284.945 154.952 284.945C155.415 284.945 155.791 284.569 155.791 284.106H154.113ZM155.791 280.081C155.791 279.617 155.415 279.242 154.952 279.242C154.489 279.242 154.113 279.617 154.113 280.081H155.791ZM154.113 276.055C154.113 276.518 154.489 276.894 154.952 276.894C155.415 276.894 155.791 276.518 155.791 276.055H154.113ZM155.791 272.03C155.791 271.567 155.415 271.191 154.952 271.191C154.489 271.191 154.113 271.567 154.113 272.03H155.791ZM154.113 268.004C154.113 268.468 154.489 268.843 154.952 268.843C155.415 268.843 155.791 268.468 155.791 268.004H154.113ZM155.791 263.979C155.791 263.516 155.415 263.14 154.952 263.14C154.489 263.14 154.113 263.516 154.113 263.979H155.791ZM154.113 259.954C154.113 260.417 154.489 260.792 154.952 260.792C155.415 260.792 155.791 260.417 155.791 259.954H154.113ZM92.335 299.033H94.5713V297.356H92.335V299.033ZM99.0439 299.033H103.517V297.356H99.0439V299.033ZM107.989 299.033H112.462V297.356H107.989V299.033ZM116.935 299.033H121.407V297.356H116.935V299.033ZM125.88 299.033H130.352V297.356H125.88V299.033ZM134.825 299.033H139.298V297.356H134.825V299.033ZM143.77 299.033H148.243V297.356H143.77V299.033ZM152.716 299.033H154.952V297.356H152.716V299.033ZM155.791 298.195V296.182H154.113V298.195H155.791ZM155.791 292.157V288.131H154.113V292.157H155.791ZM155.791 284.106V280.081H154.113V284.106H155.791ZM155.791 276.055V272.03H154.113V276.055H155.791ZM155.791 268.004V263.979H154.113V268.004H155.791ZM155.791 259.954V257.941H154.113V259.954H155.791Z" fill="#2CC68F"/>
<path d="M360.973 260.177C360.973 259.714 361.348 259.339 361.812 259.339C362.275 259.339 362.65 259.714 362.65 260.177H360.973ZM361.812 300.431V301.27C361.348 301.27 360.973 300.894 360.973 300.431H361.812ZM425.022 299.838C425.349 300.166 425.349 300.697 425.022 301.024L419.685 306.361C419.357 306.689 418.826 306.689 418.499 306.361C418.171 306.034 418.171 305.503 418.499 305.175L423.243 300.431L418.499 295.687C418.171 295.36 418.171 294.829 418.499 294.501C418.826 294.174 419.357 294.174 419.685 294.501L425.022 299.838ZM422.192 301.27C421.729 301.27 421.354 300.894 421.354 300.431C421.354 299.968 421.729 299.592 422.192 299.592V301.27ZM417.72 299.592C418.183 299.592 418.558 299.968 418.558 300.431C418.558 300.894 418.183 301.27 417.72 301.27V299.592ZM413.247 301.27C412.784 301.27 412.408 300.894 412.408 300.431C412.408 299.968 412.784 299.592 413.247 299.592V301.27ZM408.774 299.592C409.238 299.592 409.613 299.968 409.613 300.431C409.613 300.894 409.238 301.27 408.774 301.27V299.592ZM404.302 301.27C403.839 301.27 403.463 300.894 403.463 300.431C403.463 299.968 403.839 299.592 404.302 299.592V301.27ZM399.829 299.592C400.292 299.592 400.668 299.968 400.668 300.431C400.668 300.894 400.292 301.27 399.829 301.27V299.592ZM395.357 301.27C394.893 301.27 394.518 300.894 394.518 300.431C394.518 299.968 394.893 299.592 395.357 299.592V301.27ZM390.884 299.592C391.347 299.592 391.722 299.968 391.722 300.431C391.722 300.894 391.347 301.27 390.884 301.27V299.592ZM386.411 301.27C385.948 301.27 385.573 300.894 385.573 300.431C385.573 299.968 385.948 299.592 386.411 299.592V301.27ZM381.939 299.592C382.402 299.592 382.777 299.968 382.777 300.431C382.777 300.894 382.402 301.27 381.939 301.27V299.592ZM377.466 301.27C377.003 301.27 376.627 300.894 376.627 300.431C376.627 299.968 377.003 299.592 377.466 299.592V301.27ZM372.993 299.592C373.456 299.592 373.832 299.968 373.832 300.431C373.832 300.894 373.456 301.27 372.993 301.27V299.592ZM368.521 301.27C368.057 301.27 367.682 300.894 367.682 300.431C367.682 299.968 368.057 299.592 368.521 299.592V301.27ZM364.048 299.592C364.511 299.592 364.887 299.968 364.887 300.431C364.887 300.894 364.511 301.27 364.048 301.27V299.592ZM360.973 298.418C360.973 297.955 361.348 297.58 361.812 297.58C362.275 297.58 362.65 297.955 362.65 298.418H360.973ZM362.65 294.393C362.65 294.856 362.275 295.232 361.812 295.232C361.348 295.232 360.973 294.856 360.973 294.393H362.65ZM360.973 290.368C360.973 289.904 361.348 289.529 361.812 289.529C362.275 289.529 362.65 289.904 362.65 290.368H360.973ZM362.65 286.342C362.65 286.805 362.275 287.181 361.812 287.181C361.348 287.181 360.973 286.805 360.973 286.342H362.65ZM360.973 282.317C360.973 281.854 361.348 281.478 361.812 281.478C362.275 281.478 362.65 281.854 362.65 282.317H360.973ZM362.65 278.291C362.65 278.755 362.275 279.13 361.812 279.13C361.348 279.13 360.973 278.755 360.973 278.291H362.65ZM360.973 274.266C360.973 273.803 361.348 273.427 361.812 273.427C362.275 273.427 362.65 273.803 362.65 274.266H360.973ZM362.65 270.241C362.65 270.704 362.275 271.079 361.812 271.079C361.348 271.079 360.973 270.704 360.973 270.241H362.65ZM360.973 266.215C360.973 265.752 361.348 265.377 361.812 265.377C362.275 265.377 362.65 265.752 362.65 266.215H360.973ZM362.65 262.19C362.65 262.653 362.275 263.029 361.812 263.029C361.348 263.029 360.973 262.653 360.973 262.19H362.65ZM424.429 301.27H422.192V299.592H424.429V301.27ZM417.72 301.27H413.247V299.592H417.72V301.27ZM408.774 301.27H404.302V299.592H408.774V301.27ZM399.829 301.27H395.357V299.592H399.829V301.27ZM390.884 301.27H386.411V299.592H390.884V301.27ZM381.939 301.27H377.466V299.592H381.939V301.27ZM372.993 301.27H368.521V299.592H372.993V301.27ZM364.048 301.27H361.812V299.592H364.048V301.27ZM360.973 300.431V298.418H362.65V300.431H360.973ZM360.973 294.393V290.368H362.65V294.393H360.973ZM360.973 286.342V282.317H362.65V286.342H360.973ZM360.973 278.291V274.266H362.65V278.291H360.973ZM360.973 270.241V266.215H362.65V270.241H360.973ZM360.973 262.19V260.177H362.65V262.19H360.973Z" fill="#2CC68F"/>
<g filter="url(#filter3_d_8553_9317)">
<rect x="211.978" y="142.771" width="82.744" height="82.744" rx="12.2998" fill="#D2F67B"/>
</g>
<path d="M253.35 198.523C245.421 198.523 238.969 192.072 238.969 184.142C238.969 176.212 245.42 169.761 253.35 169.761C261.28 169.761 267.731 176.212 267.731 184.142C267.731 192.072 261.28 198.523 253.35 198.523ZM253.35 171.347C246.295 171.347 240.555 177.086 240.555 184.142C240.555 191.197 246.295 196.936 253.35 196.936C260.405 196.936 266.145 191.197 266.145 184.142C266.145 177.086 260.405 171.347 253.35 171.347Z" fill="#191919"/>
<path d="M255.484 210.978H251.216C249.458 210.978 248.028 209.548 248.028 207.79V204.652C248.028 203.964 247.59 203.355 246.937 203.135C246.092 202.85 245.259 202.505 244.459 202.108C243.839 201.801 243.097 201.922 242.611 202.408L240.392 204.627C239.789 205.229 238.989 205.561 238.137 205.561C237.285 205.561 236.485 205.229 235.883 204.627L232.865 201.609C232.263 201.007 231.932 200.206 231.932 199.355C231.932 198.503 232.263 197.703 232.865 197.1L235.084 194.882C235.57 194.395 235.691 193.652 235.384 193.033C234.988 192.233 234.642 191.4 234.357 190.555C234.137 189.902 233.527 189.464 232.839 189.464L229.702 189.464C227.945 189.464 226.514 188.034 226.514 186.276V182.008C226.514 180.25 227.944 178.82 229.702 178.82H232.84C233.528 178.82 234.138 178.382 234.358 177.729C234.642 176.885 234.988 176.051 235.384 175.251C235.691 174.631 235.571 173.888 235.084 173.402L232.865 171.184C232.263 170.582 231.932 169.781 231.932 168.929C231.932 168.078 232.263 167.277 232.865 166.675L235.883 163.657C236.485 163.055 237.286 162.724 238.137 162.724C238.989 162.724 239.789 163.055 240.392 163.657L242.61 165.876C243.097 166.363 243.84 166.483 244.459 166.176C245.258 165.78 246.092 165.435 246.937 165.15C247.59 164.93 248.028 164.32 248.028 163.632V160.494C248.028 158.736 249.458 157.306 251.216 157.306H255.484C257.242 157.306 258.672 158.736 258.672 160.494V163.632C258.672 164.32 259.11 164.93 259.763 165.15C260.608 165.435 261.442 165.78 262.241 166.176C262.86 166.483 263.603 166.363 264.09 165.876L266.308 163.657C266.91 163.055 267.711 162.724 268.563 162.724C269.414 162.724 270.215 163.055 270.817 163.657L273.835 166.675C274.437 167.277 274.769 168.078 274.769 168.929C274.769 169.781 274.437 170.582 273.835 171.184L271.616 173.402C271.13 173.889 271.009 174.632 271.316 175.251C271.712 176.051 272.058 176.885 272.343 177.73C272.563 178.382 273.173 178.82 273.86 178.82H276.998C278.756 178.82 280.186 180.25 280.186 182.009V186.276C280.186 187.128 279.854 187.929 279.252 188.531C278.65 189.133 277.849 189.464 276.998 189.464H276.998H273.861C273.173 189.464 272.563 189.903 272.343 190.555C272.058 191.399 271.713 192.233 271.317 193.033C271.01 193.653 271.13 194.396 271.617 194.882L273.836 197.101C274.438 197.703 274.769 198.504 274.769 199.355C274.769 200.207 274.438 201.007 273.836 201.61L270.818 204.627C270.216 205.23 269.416 205.561 268.564 205.561C267.712 205.561 266.912 205.23 266.309 204.627L264.091 202.409C263.604 201.922 262.861 201.802 262.242 202.109C261.442 202.505 260.609 202.85 259.763 203.135C259.111 203.355 258.673 203.965 258.673 204.653V207.79C258.672 209.548 257.242 210.978 255.484 210.978L255.484 210.978ZM243.743 200.354C244.225 200.354 244.711 200.463 245.164 200.687C245.9 201.052 246.667 201.37 247.445 201.632C248.742 202.07 249.614 203.284 249.614 204.652V207.789C249.614 208.674 250.333 209.392 251.217 209.392H255.485C256.369 209.392 257.088 208.673 257.088 207.789V204.652C257.088 203.284 257.959 202.07 259.257 201.632C260.035 201.37 260.802 201.052 261.538 200.687C262.767 200.078 264.244 200.319 265.212 201.287L267.43 203.505C267.733 203.808 268.136 203.975 268.564 203.975C268.992 203.975 269.394 203.808 269.697 203.505L272.715 200.488C273.018 200.185 273.184 199.782 273.184 199.354C273.184 198.926 273.018 198.524 272.715 198.221L270.496 196.002C269.529 195.034 269.288 193.558 269.897 192.329C270.262 191.592 270.58 190.824 270.842 190.047C271.28 188.75 272.493 187.878 273.862 187.878H276.999C277.428 187.878 277.83 187.711 278.133 187.409C278.436 187.106 278.603 186.703 278.603 186.275V182.007C278.603 181.123 277.883 180.404 277 180.404H273.862C272.494 180.404 271.28 179.533 270.842 178.235C270.58 177.458 270.262 176.69 269.897 175.954C269.288 174.724 269.529 173.248 270.497 172.28L272.715 170.062C273.018 169.759 273.185 169.357 273.185 168.928C273.185 168.5 273.018 168.098 272.715 167.795L269.697 164.778C269.394 164.475 268.992 164.308 268.563 164.308C268.135 164.308 267.733 164.475 267.43 164.778L265.211 166.997C264.243 167.965 262.767 168.206 261.538 167.596C260.802 167.231 260.035 166.913 259.257 166.651C257.959 166.214 257.087 165 257.087 163.631V160.494C257.087 159.61 256.368 158.891 255.484 158.891H251.217C250.333 158.891 249.614 159.61 249.614 160.494V163.632C249.614 165 248.742 166.214 247.444 166.652C246.667 166.914 245.899 167.232 245.163 167.597C243.934 168.206 242.457 167.965 241.49 166.997L239.272 164.778C238.969 164.475 238.566 164.308 238.138 164.308C237.71 164.308 237.307 164.475 237.004 164.778L233.987 167.796C233.684 168.098 233.517 168.501 233.517 168.929C233.517 169.357 233.684 169.76 233.987 170.063L236.205 172.281C237.173 173.249 237.414 174.725 236.805 175.955C236.44 176.691 236.122 177.458 235.86 178.236C235.423 179.533 234.209 180.405 232.84 180.405H229.703C228.819 180.405 228.1 181.124 228.1 182.008V186.276C228.1 187.159 228.819 187.878 229.703 187.878H232.84C234.209 187.878 235.423 188.75 235.861 190.048C236.123 190.826 236.441 191.593 236.806 192.329C237.415 193.558 237.174 195.035 236.206 196.002L233.987 198.221C233.684 198.524 233.517 198.926 233.517 199.354C233.517 199.783 233.684 200.185 233.987 200.488L237.004 203.506C237.307 203.808 237.71 203.975 238.138 203.975C238.566 203.975 238.969 203.808 239.272 203.506L241.491 201.287C242.102 200.675 242.916 200.354 243.743 200.354L243.743 200.354Z" fill="#191919"/>
<rect x="117.494" y="93.0122" width="76.035" height="26.8359" rx="5.03173" fill="#191919" stroke="#D2F67B" stroke-width="1.11816"/>
<rect x="117.494" y="235.019" width="76.035" height="26.8359" rx="5.03173" fill="#191919" stroke="#D2F67B" stroke-width="1.11816"/>
<rect x="324.354" y="93.0122" width="76.035" height="26.8359" rx="5.03173" fill="#191919" stroke="#D2F67B" stroke-width="1.11816"/>
<rect x="324.354" y="235.019" width="76.035" height="26.8359" rx="5.03173" fill="#191919" stroke="#D2F67B" stroke-width="1.11816"/>
<path d="M145.416 105.304L144.008 111.128C143.936 111.432 143.824 111.656 143.672 111.799C143.52 111.933 143.323 112 143.082 112H142.505L140.881 107.21L139.217 112H138.64C138.399 112 138.202 111.933 138.05 111.799C137.898 111.656 137.786 111.432 137.715 111.128L136.292 105.304H137.607L138.707 110.457L140.412 105.479H140.881C141.042 105.479 141.172 105.519 141.27 105.6C141.369 105.671 141.445 105.787 141.498 105.949L143.001 110.47L144.101 105.304H145.416ZM148.428 108.592L145.999 105.304H147.421L149.152 107.653L150.883 105.304H152.305L149.877 108.592L152.399 112H150.991L149.152 109.518L147.314 112H145.905L148.428 108.592ZM154.545 112C154.232 112 153.981 111.911 153.794 111.732C153.615 111.553 153.525 111.307 153.525 110.994V102.607H157.618C158.298 102.607 158.892 102.737 159.402 102.997C159.921 103.256 160.319 103.627 160.597 104.11C160.883 104.584 161.026 105.13 161.026 105.747V108.592C161.026 109.71 160.74 110.56 160.167 111.141C159.604 111.714 158.772 112 157.671 112H154.545ZM157.631 110.859C158.329 110.859 158.857 110.667 159.214 110.283C159.572 109.898 159.751 109.325 159.751 108.565V105.774C159.751 105.166 159.55 104.678 159.147 104.312C158.754 103.936 158.23 103.748 157.577 103.748H154.8V110.859H157.631ZM167.856 109.531H163.937L163.025 112H161.697L165.333 102.607H165.91C166.295 102.607 166.567 102.818 166.728 103.238L170.096 112H168.781L167.856 109.531ZM164.313 108.458H167.48L165.91 104.218H165.897L164.313 108.458ZM171.441 102.607H172.716V112H171.441V102.607Z" fill="#D2F67B"/>
<path d="M147.286 254.158C146.696 254.158 146.172 254.055 145.716 253.849C145.269 253.643 144.92 253.357 144.67 252.99C144.428 252.615 144.307 252.185 144.307 251.702V251.219C144.307 250.808 144.428 250.432 144.67 250.092C144.92 249.743 145.269 249.457 145.716 249.233V249.22C145.367 249.014 145.094 248.755 144.898 248.442C144.71 248.12 144.616 247.78 144.616 247.422V246.858C144.616 246.169 144.871 245.615 145.381 245.194C145.899 244.765 146.579 244.55 147.42 244.55H148.574C149.129 244.55 149.616 244.649 150.037 244.846C150.457 245.033 150.784 245.302 151.016 245.651C151.249 246 151.365 246.402 151.365 246.858V247.422C151.365 247.789 151.271 248.129 151.083 248.442C150.895 248.746 150.623 249.005 150.265 249.22V249.233C150.712 249.448 151.056 249.73 151.298 250.079C151.548 250.419 151.674 250.799 151.674 251.219V251.702C151.674 252.185 151.548 252.615 151.298 252.99C151.056 253.357 150.712 253.643 150.265 253.849C149.818 254.055 149.299 254.158 148.708 254.158H147.286ZM148.574 248.697C149.021 248.697 149.384 248.58 149.661 248.348C149.947 248.115 150.09 247.806 150.09 247.422V246.872C150.09 246.514 149.952 246.228 149.674 246.013C149.397 245.789 149.03 245.677 148.574 245.677H147.42C146.964 245.677 146.593 245.789 146.306 246.013C146.029 246.228 145.891 246.514 145.891 246.872V247.422C145.891 247.806 146.029 248.115 146.306 248.348C146.593 248.58 146.964 248.697 147.42 248.697H148.574ZM148.708 253.031C149.209 253.031 149.616 252.91 149.929 252.668C150.242 252.418 150.399 252.087 150.399 251.675V251.233C150.399 250.803 150.229 250.459 149.889 250.199C149.558 249.931 149.12 249.797 148.574 249.797H147.42C146.875 249.797 146.432 249.931 146.092 250.199C145.752 250.459 145.582 250.803 145.582 251.233V251.675C145.582 252.087 145.738 252.418 146.052 252.668C146.365 252.91 146.776 253.031 147.286 253.031H148.708ZM160.81 244.363H162.085L156.946 254.386H155.671L160.81 244.363ZM154.852 250.562C154.253 250.562 153.775 250.374 153.417 249.998C153.059 249.622 152.88 249.126 152.88 248.509V246.603C152.88 245.986 153.059 245.49 153.417 245.114C153.775 244.738 154.253 244.55 154.852 244.55H155.604C156.194 244.55 156.668 244.738 157.026 245.114C157.384 245.49 157.563 245.986 157.563 246.603V248.509C157.563 249.126 157.384 249.622 157.026 249.998C156.668 250.374 156.194 250.562 155.604 250.562H154.852ZM155.59 249.569C155.85 249.569 156.056 249.47 156.208 249.274C156.369 249.068 156.449 248.799 156.449 248.468V246.644C156.449 246.313 156.369 246.049 156.208 245.852C156.056 245.646 155.85 245.543 155.59 245.543H154.866C154.606 245.543 154.396 245.646 154.235 245.852C154.083 246.049 154.007 246.313 154.007 246.644V248.468C154.007 248.799 154.083 249.068 154.235 249.274C154.396 249.47 154.606 249.569 154.866 249.569H155.59ZM162.112 254.158C161.512 254.158 161.034 253.97 160.676 253.594C160.318 253.218 160.139 252.722 160.139 252.105V250.199C160.139 249.582 160.318 249.086 160.676 248.71C161.034 248.334 161.512 248.146 162.112 248.146H162.863C163.453 248.146 163.927 248.334 164.285 248.71C164.643 249.086 164.822 249.582 164.822 250.199V252.105C164.822 252.722 164.643 253.218 164.285 253.594C163.927 253.97 163.453 254.158 162.863 254.158H162.112ZM162.85 253.165C163.109 253.165 163.315 253.066 163.467 252.87C163.628 252.664 163.708 252.395 163.708 252.064V250.24C163.708 249.909 163.628 249.645 163.467 249.448C163.315 249.242 163.109 249.139 162.85 249.139H162.125C161.866 249.139 161.655 249.242 161.494 249.448C161.342 249.645 161.266 249.909 161.266 250.24V252.064C161.266 252.395 161.342 252.664 161.494 252.87C161.655 253.066 161.866 253.165 162.125 253.165H162.85Z" fill="#D2F67B"/>
<path d="M352.813 103.721H349.834V102.607H357.066V103.721H354.087V112H352.813V103.721ZM359.4 112C359.087 112 358.836 111.911 358.648 111.732C358.469 111.553 358.38 111.307 358.38 110.994V102.607H364.968V103.721H359.655V106.646H364.565V107.747H359.655V110.886H364.968V112H359.4ZM369.389 112.107C368.763 112.107 368.209 111.964 367.726 111.678C367.243 111.392 366.867 110.989 366.599 110.47C366.339 109.943 366.209 109.334 366.209 108.646V105.962C366.209 105.273 366.344 104.669 366.612 104.151C366.88 103.623 367.256 103.216 367.739 102.929C368.231 102.643 368.799 102.5 369.443 102.5H370.865C371.474 102.5 372.01 102.634 372.476 102.903C372.95 103.162 373.312 103.529 373.562 104.003C373.822 104.477 373.952 105.023 373.952 105.64H372.704C372.704 105.041 372.534 104.558 372.194 104.191C371.863 103.824 371.42 103.641 370.865 103.641H369.443C368.862 103.641 368.388 103.855 368.021 104.285C367.663 104.714 367.484 105.282 367.484 105.989V108.619C367.484 109.325 367.659 109.893 368.007 110.323C368.356 110.752 368.817 110.967 369.389 110.967H370.839C371.411 110.967 371.867 110.766 372.207 110.363C372.556 109.952 372.731 109.415 372.731 108.753H373.978C373.978 109.415 373.849 110.001 373.589 110.511C373.33 111.02 372.963 111.414 372.489 111.691C372.015 111.969 371.465 112.107 370.839 112.107H369.389Z" fill="#D2F67B"/>
<path d="M350.791 254.158C349.968 254.158 349.311 253.93 348.819 253.473C348.336 253.008 348.094 252.395 348.094 251.635H349.356C349.356 252.055 349.485 252.391 349.745 252.641C350.004 252.892 350.353 253.017 350.791 253.017H351.945C352.419 253.017 352.795 252.856 353.072 252.534C353.359 252.212 353.502 251.774 353.502 251.219V249.77C353.251 250.056 352.952 250.28 352.603 250.441C352.254 250.602 351.892 250.682 351.516 250.682H350.617C350.062 250.682 349.575 250.566 349.154 250.334C348.734 250.101 348.407 249.779 348.175 249.367C347.951 248.947 347.839 248.464 347.839 247.918V247.382C347.839 246.827 347.965 246.335 348.215 245.906C348.475 245.476 348.837 245.145 349.302 244.913C349.767 244.671 350.304 244.55 350.912 244.55H351.851C352.433 244.55 352.943 244.667 353.381 244.899C353.828 245.132 354.173 245.463 354.414 245.892C354.656 246.313 354.777 246.8 354.777 247.355V251.219C354.777 252.123 354.522 252.838 354.012 253.366C353.502 253.894 352.813 254.158 351.945 254.158H350.791ZM351.543 249.569C352.008 249.569 352.424 249.43 352.791 249.153C353.157 248.875 353.394 248.518 353.502 248.079V247.247C353.502 246.773 353.35 246.393 353.046 246.107C352.741 245.812 352.343 245.664 351.851 245.664H350.912C350.375 245.664 349.942 245.821 349.611 246.134C349.28 246.447 349.114 246.863 349.114 247.382V247.918C349.114 248.419 349.248 248.822 349.517 249.126C349.794 249.421 350.156 249.569 350.604 249.569H351.543ZM356.201 253.017C356.201 252.507 356.29 252.064 356.469 251.689C356.657 251.313 356.961 250.982 357.381 250.696L360.709 248.348C360.915 248.205 361.071 248.039 361.179 247.851C361.295 247.654 361.353 247.453 361.353 247.247V246.818C361.353 246.478 361.237 246.205 361.004 246C360.772 245.794 360.459 245.691 360.065 245.691H358.831C358.401 245.691 358.057 245.843 357.797 246.147C357.547 246.442 357.422 246.849 357.422 247.368H356.147C356.147 246.5 356.384 245.816 356.858 245.315C357.341 244.805 357.99 244.55 358.804 244.55H360.065C360.834 244.55 361.452 244.761 361.917 245.181C362.391 245.593 362.628 246.138 362.628 246.818V247.247C362.628 248.061 362.252 248.723 361.501 249.233L358.267 251.461C357.981 251.657 357.775 251.863 357.65 252.078C357.534 252.293 357.475 252.574 357.475 252.923H362.735V254.05H356.201V253.017ZM371.771 244.363H373.046L367.907 254.386H366.632L371.771 244.363ZM365.814 250.562C365.214 250.562 364.736 250.374 364.378 249.998C364.02 249.622 363.841 249.126 363.841 248.509V246.603C363.841 245.986 364.02 245.49 364.378 245.114C364.736 244.738 365.214 244.55 365.814 244.55H366.565C367.156 244.55 367.63 244.738 367.987 245.114C368.345 245.49 368.524 245.986 368.524 246.603V248.509C368.524 249.126 368.345 249.622 367.987 249.998C367.63 250.374 367.156 250.562 366.565 250.562H365.814ZM366.552 249.569C366.811 249.569 367.017 249.47 367.169 249.274C367.33 249.068 367.41 248.799 367.41 248.468V246.644C367.41 246.313 367.33 246.049 367.169 245.852C367.017 245.646 366.811 245.543 366.552 245.543H365.827C365.568 245.543 365.358 245.646 365.196 245.852C365.044 246.049 364.968 246.313 364.968 246.644V248.468C364.968 248.799 365.044 249.068 365.196 249.274C365.358 249.47 365.568 249.569 365.827 249.569H366.552ZM373.073 254.158C372.473 254.158 371.995 253.97 371.637 253.594C371.279 253.218 371.1 252.722 371.1 252.105V250.199C371.1 249.582 371.279 249.086 371.637 248.71C371.995 248.334 372.473 248.146 373.073 248.146H373.824C374.415 248.146 374.889 248.334 375.247 248.71C375.604 249.086 375.783 249.582 375.783 250.199V252.105C375.783 252.722 375.604 253.218 375.247 253.594C374.889 253.97 374.415 254.158 373.824 254.158H373.073ZM373.811 253.165C374.07 253.165 374.276 253.066 374.428 252.87C374.589 252.664 374.67 252.395 374.67 252.064V250.24C374.67 249.909 374.589 249.645 374.428 249.448C374.276 249.242 374.07 249.139 373.811 249.139H373.086C372.827 249.139 372.617 249.242 372.456 249.448C372.304 249.645 372.227 249.909 372.227 250.24V252.064C372.227 252.395 372.304 252.664 372.456 252.87C372.617 253.066 372.827 253.165 373.086 253.165H373.811Z" fill="#D2F67B"/>
<path d="M59.4302 292.344C59.4414 292.125 59.447 291.902 59.447 291.679C59.447 284.173 53.3402 278.068 45.8346 278.068C38.329 278.068 32.2233 284.174 32.2233 291.679C32.2233 291.718 32.2259 291.756 32.2263 291.795C26.871 293.627 23.0088 298.706 23.0088 304.674C23.0088 312.181 29.1151 318.287 36.6201 318.287C39.846 318.287 42.8109 317.157 45.146 315.276C47.4806 317.157 50.4457 318.287 53.6715 318.287C61.1778 318.287 67.2839 312.18 67.2839 304.674C67.2839 299.226 64.065 294.518 59.4301 292.344L59.4302 292.344ZM45.8343 279.303C52.6594 279.303 58.2117 284.855 58.2117 291.679C58.2117 291.734 58.2043 291.786 58.203 291.841C56.7845 291.338 55.2591 291.062 53.6704 291.062C50.4445 291.062 47.4796 292.192 45.1449 294.073C42.8099 292.192 39.8448 291.062 36.619 291.062C35.5342 291.062 34.4809 291.193 33.469 291.434C33.6023 284.724 39.0929 279.302 45.8342 279.302L45.8343 279.303ZM45.1458 313.624C42.7784 311.368 41.2943 308.195 41.2943 304.674C41.2943 304.62 41.3016 304.567 41.3025 304.513C42.7218 305.016 44.2464 305.292 45.8351 305.292C46.9199 305.292 47.9736 305.161 48.9855 304.92C48.9174 308.342 47.4566 311.422 45.1457 313.624L45.1458 313.624ZM45.8343 304.057C44.2658 304.057 42.7697 303.752 41.3879 303.217C41.7346 300.283 43.1103 297.665 45.1458 295.725C47.2796 297.759 48.6877 300.539 48.9451 303.646C47.9496 303.906 46.9105 304.057 45.8343 304.057V304.057ZM40.2053 302.69C36.4957 300.785 33.8708 297.067 33.5096 292.709C34.5055 292.45 35.5442 292.298 36.6199 292.298C39.4767 292.298 42.1028 293.28 44.2004 294.912C42.0981 296.951 40.6503 299.658 40.2054 302.69L40.2053 302.69ZM46.0913 294.911C48.1884 293.279 50.815 292.297 53.6709 292.297C55.2394 292.297 56.7355 292.602 58.1182 293.137C57.568 297.8 54.4172 301.666 50.1592 303.263C49.8212 300 48.3251 297.078 46.0914 294.911L46.0913 294.911ZM36.6199 317.051C29.7957 317.051 24.2437 311.499 24.2437 304.674C24.2437 299.372 27.6019 294.851 32.2967 293.092C32.7981 297.934 35.8476 302.027 40.0767 304.01C40.0655 304.23 40.0599 304.452 40.0599 304.674C40.0599 308.501 41.6495 311.962 44.2007 314.438C42.1031 316.069 39.477 317.052 36.6202 317.052L36.6199 317.051ZM53.6715 317.051C50.8152 317.051 48.1891 316.069 46.0919 314.437C48.6426 311.961 50.2327 308.501 50.2327 304.674C50.2327 304.635 50.2301 304.598 50.2297 304.559C54.9796 302.934 58.5534 298.754 59.3011 293.664C63.3013 295.718 66.0495 299.878 66.0495 304.674C66.0486 311.499 60.4963 317.051 53.6722 317.051L53.6715 317.051Z" fill="#191919"/>
<path d="M474.641 286.412C478.244 286.412 481.51 287.813 483.878 290.078C486.254 292.351 487.723 295.491 487.723 298.959C487.723 302.426 486.253 305.565 483.878 307.839C481.51 310.104 478.244 311.505 474.641 311.505C471.039 311.505 467.773 310.104 465.405 307.839C463.029 305.566 461.56 302.426 461.56 298.959C461.56 295.492 463.03 292.352 465.405 290.078C467.773 287.813 471.038 286.412 474.641 286.412ZM482.907 291.093C480.795 289.073 477.874 287.823 474.641 287.823C471.409 287.823 468.488 289.073 466.376 291.093C464.273 293.105 462.972 295.886 462.972 298.958C462.972 302.03 464.273 304.811 466.376 306.823C468.488 308.843 471.409 310.093 474.641 310.093C477.874 310.093 480.795 308.843 482.907 306.823C485.01 304.811 486.311 302.03 486.311 298.958C486.311 295.886 485.01 293.105 482.907 291.093Z" fill="#191919"/>
<path d="M474.641 292.261C476.556 292.261 478.294 293.008 479.555 294.215C480.825 295.429 481.61 297.107 481.61 298.959C481.61 300.812 480.825 302.489 479.555 303.704C478.294 304.911 476.556 305.658 474.641 305.658C472.726 305.658 470.989 304.911 469.727 303.704C468.458 302.49 467.672 300.812 467.672 298.959C467.672 297.107 468.458 295.43 469.727 294.215C470.989 293.008 472.726 292.261 474.641 292.261ZM478.584 295.229C477.58 294.267 476.185 293.672 474.641 293.672C473.097 293.672 471.703 294.267 470.698 295.229C469.701 296.183 469.085 297.502 469.085 298.959C469.085 300.416 469.701 301.735 470.698 302.688C471.703 303.65 473.097 304.245 474.641 304.245C476.185 304.245 477.58 303.65 478.584 302.688C479.582 301.734 480.198 300.416 480.198 298.959C480.198 297.502 479.582 296.183 478.584 295.229Z" fill="#191919"/>
<path d="M456.86 278.068H492.424C493.28 278.068 494.057 278.417 494.621 278.98C495.184 279.544 495.533 280.321 495.533 281.177V316.742C495.533 317.597 495.184 318.375 494.621 318.938C494.057 319.501 493.28 319.851 492.424 319.851H456.86C456.004 319.851 455.226 319.501 454.663 318.938C454.1 318.375 453.75 317.598 453.75 316.742V311.568H455.117V303.368H453.75V294.552H455.117V286.351H453.75V281.178C453.75 280.322 454.1 279.545 454.663 278.981C455.226 278.418 456.003 278.069 456.86 278.069V278.068ZM492.424 279.48H456.86C456.394 279.48 455.97 279.671 455.661 279.979C455.354 280.287 455.162 280.711 455.162 281.177V284.939H455.537C455.809 284.939 456.056 285.051 456.235 285.23L456.238 285.233C456.417 285.412 456.529 285.66 456.529 285.931V294.971C456.529 295.241 456.417 295.488 456.238 295.669L456.235 295.672C456.054 295.852 455.806 295.963 455.536 295.963H455.162V301.956H455.536C455.808 301.956 456.055 302.067 456.235 302.247L456.237 302.249C456.417 302.429 456.528 302.676 456.528 302.948V311.987C456.528 312.257 456.417 312.505 456.237 312.686L456.234 312.689C456.054 312.868 455.806 312.98 455.536 312.98H455.161V316.742C455.161 317.207 455.352 317.632 455.66 317.94C455.968 318.248 456.392 318.439 456.859 318.439H492.423C492.889 318.439 493.313 318.248 493.621 317.94C493.929 317.632 494.12 317.208 494.12 316.742V281.177C494.12 280.711 493.929 280.287 493.621 279.979C493.313 279.671 492.889 279.48 492.423 279.48L492.424 279.48Z" fill="#191919"/>
<path d="M453.376 284.938H455.536C455.808 284.938 456.056 285.05 456.235 285.229L456.238 285.232C456.417 285.411 456.528 285.659 456.528 285.931V294.97C456.528 295.243 456.417 295.492 456.238 295.671L456.236 295.67C456.055 295.85 455.807 295.962 455.536 295.962H453.375C453.105 295.962 452.856 295.85 452.675 295.67L452.674 295.671C452.494 295.492 452.383 295.243 452.383 294.97V285.931C452.383 285.659 452.494 285.411 452.674 285.232L452.676 285.229C452.856 285.05 453.103 284.938 453.375 284.938H453.376ZM455.117 286.351H453.796V294.551H455.117V286.351Z" fill="#191919"/>
<path d="M453.376 301.956H455.536C455.808 301.956 456.056 302.067 456.235 302.246L456.238 302.249C456.417 302.429 456.528 302.676 456.528 302.948V311.987C456.528 312.261 456.417 312.509 456.238 312.688L456.236 312.687C456.055 312.867 455.807 312.979 455.536 312.979H453.375C453.105 312.979 452.856 312.867 452.675 312.687L452.674 312.688C452.494 312.509 452.383 312.26 452.383 311.987V302.948C452.383 302.676 452.494 302.429 452.674 302.249L452.676 302.246C452.856 302.067 453.103 301.956 453.375 301.956H453.376ZM455.117 303.368H453.796V311.568H455.117V303.368Z" fill="#191919"/>
<path d="M475.348 287.118C475.348 286.729 475.032 286.413 474.642 286.413C474.252 286.413 473.936 286.729 473.936 287.118V290.083C473.936 290.473 474.252 290.789 474.642 290.789C475.032 290.789 475.348 290.473 475.348 290.083V287.118Z" fill="#191919"/>
<path d="M481.172 289.058C481.367 288.721 481.252 288.29 480.915 288.095C480.579 287.9 480.148 288.015 479.953 288.352L478.47 290.919C478.275 291.256 478.39 291.687 478.727 291.882C479.063 292.076 479.494 291.962 479.689 291.625L481.172 289.058Z" fill="#191919"/>
<path d="M485.249 293.649C485.586 293.454 485.701 293.023 485.506 292.686C485.311 292.35 484.88 292.235 484.543 292.43L481.976 293.912C481.639 294.107 481.525 294.538 481.719 294.875C481.914 295.211 482.345 295.326 482.682 295.131L485.249 293.649Z" fill="#191919"/>
<path d="M486.484 299.664C486.874 299.664 487.19 299.348 487.19 298.958C487.19 298.568 486.874 298.252 486.484 298.252H483.519C483.129 298.252 482.813 298.568 482.813 298.958C482.813 299.348 483.129 299.664 483.519 299.664H486.484Z" fill="#191919"/>
<path d="M484.544 305.49C484.88 305.684 485.311 305.57 485.506 305.233C485.701 304.897 485.586 304.466 485.25 304.271L482.682 302.788C482.346 302.593 481.915 302.708 481.72 303.045C481.525 303.381 481.64 303.812 481.976 304.007L484.544 305.49Z" fill="#191919"/>
<path d="M479.953 309.567C480.148 309.903 480.579 310.018 480.915 309.823C481.252 309.629 481.367 309.198 481.172 308.861L479.689 306.294C479.494 305.957 479.063 305.842 478.727 306.037C478.39 306.232 478.275 306.663 478.47 307L479.953 309.567Z" fill="#191919"/>
<path d="M473.936 310.8C473.936 311.19 474.252 311.506 474.642 311.506C475.032 311.506 475.348 311.19 475.348 310.8V307.835C475.348 307.445 475.032 307.129 474.642 307.129C474.252 307.129 473.936 307.445 473.936 307.835V310.8Z" fill="#191919"/>
<path d="M468.113 308.86C467.918 309.197 468.032 309.628 468.369 309.822C468.705 310.017 469.136 309.903 469.331 309.566L470.814 306.999C471.009 306.662 470.894 306.231 470.557 306.036C470.221 305.841 469.79 305.956 469.595 306.293L468.113 308.86Z" fill="#191919"/>
<path d="M464.035 304.27C463.698 304.465 463.584 304.896 463.779 305.232C463.973 305.569 464.404 305.683 464.741 305.489L467.308 304.006C467.645 303.811 467.76 303.38 467.565 303.044C467.37 302.707 466.939 302.592 466.602 302.787L464.035 304.27Z" fill="#191919"/>
<path d="M462.802 298.252C462.412 298.252 462.096 298.568 462.096 298.958C462.096 299.348 462.412 299.664 462.802 299.664H465.767C466.157 299.664 466.473 299.348 466.473 298.958C466.473 298.568 466.157 298.252 465.767 298.252H462.802Z" fill="#191919"/>
<path d="M464.74 292.429C464.404 292.234 463.973 292.349 463.778 292.685C463.583 293.022 463.698 293.453 464.035 293.648L466.602 295.13C466.938 295.325 467.369 295.21 467.564 294.874C467.759 294.537 467.644 294.106 467.308 293.911L464.74 292.429Z" fill="#191919"/>
<path d="M469.331 288.351C469.136 288.015 468.705 287.9 468.368 288.095C468.032 288.29 467.917 288.721 468.112 289.057L469.594 291.625C469.789 291.961 470.22 292.076 470.557 291.881C470.893 291.686 471.008 291.255 470.813 290.919L469.331 288.351Z" fill="#191919"/>
<path d="M475.348 293.045C475.348 292.655 475.032 292.339 474.642 292.339C474.252 292.339 473.936 292.655 473.936 293.045V294.526C473.936 294.915 474.252 295.231 474.642 295.231C475.032 295.231 475.348 294.915 475.348 294.526V293.045Z" fill="#191919"/>
<path d="M478.208 294.187C478.401 293.851 478.285 293.421 477.949 293.227C477.612 293.034 477.182 293.15 476.989 293.486L476.248 294.769C476.055 295.105 476.171 295.535 476.507 295.729C476.844 295.922 477.274 295.806 477.467 295.47L478.208 294.187Z" fill="#191919"/>
<path d="M480.115 296.611C480.451 296.418 480.567 295.988 480.374 295.651C480.18 295.315 479.75 295.199 479.414 295.392L478.131 296.133C477.795 296.327 477.679 296.756 477.872 297.093C478.066 297.429 478.496 297.545 478.832 297.352L480.115 296.611Z" fill="#191919"/>
<path d="M480.557 299.664C480.947 299.664 481.263 299.348 481.263 298.958C481.263 298.568 480.947 298.252 480.557 298.252H479.076C478.687 298.252 478.371 298.568 478.371 298.958C478.371 299.348 478.687 299.664 479.076 299.664H480.557Z" fill="#191919"/>
<path d="M479.411 302.526C479.748 302.721 480.179 302.606 480.373 302.269C480.568 301.933 480.453 301.502 480.117 301.307L478.835 300.566C478.498 300.371 478.067 300.486 477.872 300.823C477.677 301.159 477.792 301.59 478.129 301.785L479.411 302.526Z" fill="#191919"/>
<path d="M476.989 304.434C477.184 304.77 477.615 304.885 477.951 304.69C478.288 304.495 478.403 304.065 478.208 303.728L477.467 302.446C477.272 302.109 476.841 301.994 476.505 302.189C476.168 302.384 476.053 302.815 476.248 303.151L476.989 304.434Z" fill="#191919"/>
<path d="M473.936 304.874C473.936 305.264 474.252 305.58 474.642 305.58C475.032 305.58 475.348 305.264 475.348 304.874V303.393C475.348 303.003 475.032 302.687 474.642 302.687C474.252 302.687 473.936 303.003 473.936 303.393V304.874Z" fill="#191919"/>
<path d="M471.075 303.731C470.881 304.068 470.997 304.498 471.334 304.691C471.67 304.884 472.1 304.768 472.293 304.432L473.034 303.15C473.227 302.813 473.112 302.383 472.775 302.19C472.438 301.996 472.009 302.112 471.815 302.449L471.075 303.731Z" fill="#191919"/>
<path d="M469.166 301.307C468.83 301.502 468.715 301.933 468.91 302.269C469.105 302.606 469.536 302.721 469.872 302.526L471.155 301.785C471.491 301.59 471.606 301.159 471.411 300.823C471.216 300.486 470.785 300.371 470.449 300.566L469.166 301.307Z" fill="#191919"/>
<path d="M468.727 298.252C468.337 298.252 468.021 298.568 468.021 298.958C468.021 299.348 468.337 299.664 468.727 299.664H470.208C470.598 299.664 470.914 299.348 470.914 298.958C470.914 298.568 470.598 298.252 470.208 298.252H468.727Z" fill="#191919"/>
<path d="M469.869 295.392C469.533 295.199 469.103 295.315 468.91 295.651C468.716 295.988 468.832 296.418 469.169 296.611L470.451 297.352C470.787 297.545 471.217 297.429 471.411 297.093C471.604 296.756 471.488 296.327 471.152 296.133L469.869 295.392Z" fill="#191919"/>
<path d="M472.293 293.486C472.1 293.149 471.67 293.034 471.334 293.227C470.997 293.42 470.881 293.85 471.075 294.187L471.815 295.469C472.009 295.806 472.438 295.921 472.775 295.728C473.111 295.535 473.227 295.105 473.034 294.768L472.293 293.486Z" fill="#191919"/>
<path d="M458.551 318.439H467.801C468.191 318.439 468.507 318.755 468.507 319.144C468.507 319.315 468.446 319.472 468.346 319.594L466.076 322.938L465.494 322.543L466.079 322.94C465.941 323.142 465.717 323.251 465.49 323.249H460.857C460.59 323.249 460.358 323.101 460.238 322.883L457.968 319.539L457.966 319.54C457.747 319.218 457.831 318.779 458.153 318.56C458.276 318.476 458.415 318.437 458.552 318.438L458.551 318.439ZM466.472 319.851H459.878L461.227 321.838H465.124L466.472 319.851Z" fill="#191919"/>
<path d="M480.119 318.439H489.368C489.758 318.439 490.074 318.755 490.074 319.144C490.074 319.315 490.014 319.472 489.913 319.594L487.643 322.938L487.062 322.543L487.646 322.94C487.508 323.142 487.285 323.251 487.057 323.249H482.424C482.157 323.249 481.925 323.101 481.805 322.883L479.536 319.539L479.533 319.54C479.314 319.218 479.398 318.779 479.721 318.56C479.843 318.476 479.982 318.437 480.119 318.438L480.119 318.439ZM488.04 319.851H481.446L482.794 321.838H486.691L488.04 319.851Z" fill="#191919"/>
<path d="M25.9463 237.722C25.4245 237.722 24.9623 237.603 24.5598 237.364C24.1572 237.125 23.8441 236.79 23.6205 236.358C23.4043 235.918 23.2962 235.411 23.2962 234.837V232.601C23.2962 232.027 23.4081 231.523 23.6317 231.091C23.8553 230.651 24.1684 230.312 24.5709 230.074C24.9809 229.835 25.4543 229.716 25.991 229.716H27.1763C27.6832 229.716 28.1304 229.828 28.5181 230.051C28.9131 230.267 29.215 230.573 29.4238 230.968C29.6399 231.363 29.748 231.818 29.748 232.332H28.7081C28.7081 231.833 28.5665 231.43 28.2832 231.125C28.0074 230.819 27.6384 230.666 27.1763 230.666H25.991C25.5065 230.666 25.1114 230.845 24.8058 231.203C24.5076 231.561 24.3585 232.034 24.3585 232.623V234.815C24.3585 235.403 24.5039 235.877 24.7946 236.235C25.0853 236.592 25.4692 236.771 25.9463 236.771H27.1539C27.631 236.771 28.0112 236.604 28.2944 236.268C28.5851 235.925 28.7305 235.478 28.7305 234.926H29.7704C29.7704 235.478 29.6623 235.966 29.4461 236.391C29.23 236.816 28.9243 237.144 28.5292 237.375C28.1342 237.606 27.6757 237.722 27.1539 237.722H25.9463ZM32.9118 237.722C32.2558 237.722 31.7266 237.524 31.324 237.129C30.9289 236.734 30.7314 236.216 30.7314 235.575V234.121C30.7314 233.473 30.9327 232.951 31.3352 232.556C31.7378 232.161 32.2707 231.963 32.9342 231.963H33.8734C34.5369 231.963 35.0699 232.161 35.4724 232.556C35.875 232.951 36.0762 233.473 36.0762 234.121V235.575C36.0762 236.216 35.8712 236.734 35.4612 237.129C35.0587 237.524 34.5257 237.722 33.8623 237.722H32.9118ZM33.8511 236.805C34.2089 236.805 34.4959 236.689 34.7121 236.458C34.9282 236.227 35.0363 235.918 35.0363 235.53V234.155C35.0363 233.767 34.9282 233.458 34.7121 233.227C34.5033 232.996 34.2238 232.88 33.8734 232.88H32.9342C32.5838 232.88 32.3006 232.996 32.0844 233.227C31.8757 233.458 31.7713 233.767 31.7713 234.155V235.53C31.7713 235.918 31.8757 236.227 32.0844 236.458C32.2931 236.689 32.5726 236.805 32.923 236.805H33.8511ZM43.6252 231.963C44.1396 231.963 44.5496 232.131 44.8552 232.466C45.1608 232.794 45.3136 233.245 45.3136 233.819V237.632H44.2737V233.808C44.2737 233.525 44.2067 233.301 44.0725 233.137C43.9383 232.966 43.7631 232.88 43.5469 232.88H42.9655C42.6822 232.88 42.4437 232.981 42.2499 233.182C42.0635 233.376 41.9442 233.644 41.8921 233.987V237.632H40.841V233.853C40.841 233.547 40.7776 233.309 40.6509 233.137C40.5316 232.966 40.3676 232.88 40.1589 232.88H39.5886C39.3054 232.88 39.0594 233.003 38.8507 233.249C38.6419 233.488 38.5115 233.804 38.4593 234.2V237.632H37.4194V232.053H38.4146V232.802C38.5637 232.541 38.7463 232.336 38.9625 232.187C39.1861 232.038 39.4135 231.963 39.6446 231.963H40.2931C40.5913 231.963 40.8484 232.038 41.0646 232.187C41.2883 232.336 41.4634 232.548 41.5902 232.824C41.7542 232.541 41.9554 232.329 42.194 232.187C42.4325 232.038 42.6897 231.963 42.9655 231.963H43.6252ZM53.016 231.963C53.5304 231.963 53.9404 232.131 54.246 232.466C54.5516 232.794 54.7044 233.245 54.7044 233.819V237.632H53.6646V233.808C53.6646 233.525 53.5975 233.301 53.4633 233.137C53.3291 232.966 53.1539 232.88 52.9378 232.88H52.3563C52.073 232.88 51.8345 232.981 51.6407 233.182C51.4543 233.376 51.3351 233.644 51.2829 233.987V237.632H50.2318V233.853C50.2318 233.547 50.1684 233.309 50.0417 233.137C49.9224 232.966 49.7584 232.88 49.5497 232.88H48.9795C48.6962 232.88 48.4502 233.003 48.2415 233.249C48.0327 233.488 47.9023 233.804 47.8501 234.2V237.632H46.8102V232.053H47.8054V232.802C47.9545 232.541 48.1371 232.336 48.3533 232.187C48.5769 232.038 48.8043 231.963 49.0354 231.963H49.6839C49.9821 231.963 50.2393 232.038 50.4554 232.187C50.6791 232.336 50.8542 232.548 50.981 232.824C51.145 232.541 51.3462 232.329 51.5848 232.187C51.8233 232.038 52.0805 231.963 52.3563 231.963H53.016ZM58.1578 237.722C57.5018 237.722 56.9726 237.524 56.57 237.129C56.175 236.734 55.9774 236.216 55.9774 235.575V234.121C55.9774 233.473 56.1787 232.951 56.5812 232.556C56.9838 232.161 57.5167 231.963 58.1802 231.963H59.1194C59.7829 231.963 60.3159 232.161 60.7184 232.556C61.121 232.951 61.3222 233.473 61.3222 234.121V235.575C61.3222 236.216 61.1172 236.734 60.7072 237.129C60.3047 237.524 59.7717 237.722 59.1083 237.722H58.1578ZM59.0971 236.805C59.4549 236.805 59.7419 236.689 59.9581 236.458C60.1742 236.227 60.2823 235.918 60.2823 235.53V234.155C60.2823 233.767 60.1742 233.458 59.9581 233.227C59.7493 232.996 59.4698 232.88 59.1194 232.88H58.1802C57.8298 232.88 57.5466 232.996 57.3304 233.227C57.1217 233.458 57.0173 233.767 57.0173 234.155V235.53C57.0173 235.918 57.1217 236.227 57.3304 236.458C57.5391 236.689 57.8186 236.805 58.169 236.805H59.0971ZM62.6654 232.053H63.6606V232.824C63.8246 232.571 64.0408 232.366 64.3091 232.209C64.5849 232.045 64.857 231.963 65.1254 231.963H65.8634C66.4001 231.963 66.8324 232.142 67.1604 232.5C67.4959 232.858 67.6636 233.327 67.6636 233.909V237.632H66.6237V233.909C66.6237 233.603 66.5454 233.357 66.3889 233.171C66.2324 232.977 66.0274 232.88 65.7739 232.88H65.0806C64.7601 232.88 64.4694 233.003 64.2085 233.249C63.9476 233.495 63.7799 233.816 63.7053 234.211V237.632H62.6654V232.053ZM34.8434 242.805H38.7458C39.3645 242.805 39.8603 242.98 40.233 243.331C40.6132 243.674 40.8033 244.132 40.8033 244.706V245.824C40.8033 246.428 40.602 246.916 40.1994 247.289C39.8044 247.654 39.2788 247.837 38.6228 247.837H35.9057V250.632H34.8434V242.805ZM38.6005 246.898C38.9434 246.898 39.2192 246.797 39.4279 246.596C39.6366 246.387 39.741 246.115 39.741 245.78V244.717C39.741 244.427 39.6478 244.192 39.4615 244.013C39.2751 243.834 39.0291 243.744 38.7235 243.744H35.9057V246.898H38.6005ZM43.7659 250.722C43.1099 250.722 42.5806 250.524 42.1781 250.129C41.783 249.734 41.5854 249.216 41.5854 248.575V247.121C41.5854 246.473 41.7867 245.951 42.1892 245.556C42.5918 245.161 43.1248 244.963 43.7882 244.963H44.7275C45.3909 244.963 45.9239 245.161 46.3264 245.556C46.729 245.951 46.9303 246.473 46.9303 247.121V248.575C46.9303 249.216 46.7253 249.734 46.3153 250.129C45.9127 250.524 45.3797 250.722 44.7163 250.722H43.7659ZM44.7051 249.805C45.0629 249.805 45.3499 249.689 45.5661 249.458C45.7823 249.227 45.8904 248.918 45.8904 248.53V247.155C45.8904 246.767 45.7823 246.458 45.5661 246.227C45.3574 245.996 45.0778 245.88 44.7275 245.88H43.7882C43.4379 245.88 43.1546 245.996 42.9384 246.227C42.7297 246.458 42.6253 246.767 42.6253 247.155V248.53C42.6253 248.918 42.7297 249.227 42.9384 249.458C43.1471 249.689 43.4267 249.805 43.777 249.805H44.7051ZM50.2302 250.722C49.5742 250.722 49.045 250.524 48.6424 250.129C48.2474 249.734 48.0498 249.216 48.0498 248.575V247.121C48.0498 246.473 48.2511 245.951 48.6536 245.556C49.0562 245.161 49.5891 244.963 50.2526 244.963H51.1918C51.8553 244.963 52.3883 245.161 52.7908 245.556C53.1934 245.951 53.3946 246.473 53.3946 247.121V248.575C53.3946 249.216 53.1896 249.734 52.7796 250.129C52.3771 250.524 51.8441 250.722 51.1807 250.722H50.2302ZM51.1695 249.805C51.5273 249.805 51.8143 249.689 52.0305 249.458C52.2466 249.227 52.3547 248.918 52.3547 248.53V247.155C52.3547 246.767 52.2466 246.458 52.0305 246.227C51.8217 245.996 51.5422 245.88 51.1918 245.88H50.2526C49.9022 245.88 49.619 245.996 49.4028 246.227C49.1941 246.458 49.0897 246.767 49.0897 247.155V248.53C49.0897 248.918 49.1941 249.227 49.4028 249.458C49.6115 249.689 49.8911 249.805 50.2414 249.805H51.1695ZM56.4039 250.632C55.815 250.632 55.3901 250.509 55.1292 250.263C54.8683 250.01 54.7378 249.604 54.7378 249.045V242.805H55.7777V249.011C55.7777 249.264 55.8299 249.447 55.9343 249.559C56.0386 249.671 56.2101 249.727 56.4486 249.727H56.8959V250.632H56.4039Z" fill="#D8D8D8"/>
<path d="M448.799 229.805H452.724C453.328 229.805 453.812 229.977 454.178 230.32C454.55 230.655 454.737 231.099 454.737 231.65V232.455C454.737 232.843 454.614 233.186 454.368 233.484C454.129 233.782 453.801 233.998 453.384 234.132V234.144C453.824 234.405 454.152 234.882 454.368 235.575L454.983 237.632H453.887L453.283 235.62C453.179 235.269 453.011 234.993 452.78 234.792C452.556 234.591 452.299 234.49 452.008 234.49H449.862V237.632H448.799V229.805ZM452.433 233.551C452.806 233.551 453.104 233.45 453.328 233.249C453.559 233.048 453.675 232.783 453.675 232.455V231.639C453.675 231.371 453.585 231.154 453.406 230.99C453.227 230.826 452.992 230.744 452.702 230.744H449.862V233.551H452.433ZM458.082 237.722C457.426 237.722 456.897 237.535 456.494 237.163C456.099 236.783 455.902 236.287 455.902 235.676V234.132C455.902 233.476 456.099 232.951 456.494 232.556C456.897 232.161 457.426 231.963 458.082 231.963H458.999C459.633 231.963 460.143 232.157 460.531 232.545C460.919 232.932 461.112 233.447 461.112 234.088V235.139H456.942V235.676C456.942 236.018 457.046 236.294 457.255 236.503C457.463 236.712 457.739 236.816 458.082 236.816H458.943C459.279 236.816 459.551 236.73 459.759 236.559C459.968 236.38 460.072 236.145 460.072 235.854H461.09C461.09 236.414 460.892 236.865 460.497 237.207C460.102 237.55 459.58 237.722 458.932 237.722H458.082ZM460.072 234.311V234.088C460.072 233.715 459.972 233.417 459.771 233.193C459.577 232.97 459.32 232.858 458.999 232.858H458.082C457.739 232.858 457.463 232.977 457.255 233.216C457.046 233.447 456.942 233.756 456.942 234.144V234.311H460.072ZM464.115 237.722C463.511 237.722 463.027 237.558 462.662 237.23C462.296 236.894 462.114 236.455 462.114 235.91H463.131C463.131 236.186 463.221 236.41 463.399 236.581C463.578 236.753 463.817 236.838 464.115 236.838H465.099C465.382 236.838 465.61 236.786 465.781 236.682C465.953 236.57 466.038 236.425 466.038 236.246V235.922C466.038 235.802 465.986 235.698 465.882 235.608C465.785 235.512 465.658 235.448 465.502 235.418L463.567 235.083C463.157 235.008 462.829 234.856 462.583 234.624C462.337 234.386 462.214 234.11 462.214 233.797V233.428C462.214 232.988 462.389 232.634 462.74 232.366C463.09 232.097 463.56 231.963 464.149 231.963H465.088C465.647 231.963 466.094 232.116 466.43 232.422C466.773 232.727 466.944 233.134 466.944 233.64H465.927C465.919 233.402 465.837 233.212 465.681 233.07C465.531 232.921 465.334 232.847 465.088 232.847H464.16C463.884 232.847 463.664 232.902 463.5 233.014C463.344 233.126 463.265 233.275 463.265 233.462V233.741C463.265 233.86 463.317 233.965 463.422 234.054C463.526 234.144 463.66 234.207 463.824 234.244L465.781 234.591C466.169 234.658 466.482 234.807 466.72 235.038C466.966 235.269 467.089 235.538 467.089 235.843V236.279C467.089 236.712 466.907 237.062 466.542 237.33C466.176 237.591 465.695 237.722 465.099 237.722H464.115ZM470.279 237.722C469.623 237.722 469.094 237.535 468.691 237.163C468.296 236.783 468.099 236.287 468.099 235.676V234.132C468.099 233.476 468.296 232.951 468.691 232.556C469.094 232.161 469.623 231.963 470.279 231.963H471.196C471.83 231.963 472.34 232.157 472.728 232.545C473.116 232.932 473.309 233.447 473.309 234.088V235.139H469.139V235.676C469.139 236.018 469.243 236.294 469.452 236.503C469.661 236.712 469.936 236.816 470.279 236.816H471.14C471.476 236.816 471.748 236.73 471.956 236.559C472.165 236.38 472.27 236.145 472.27 235.854H473.287C473.287 236.414 473.09 236.865 472.694 237.207C472.299 237.55 471.778 237.722 471.129 237.722H470.279ZM472.27 234.311V234.088C472.27 233.715 472.169 233.417 471.968 233.193C471.774 232.97 471.517 232.858 471.196 232.858H470.279C469.936 232.858 469.661 232.977 469.452 233.216C469.243 233.447 469.139 233.756 469.139 234.144V234.311H472.27ZM474.59 232.053H475.585V232.869C475.735 232.623 475.951 232.422 476.234 232.265C476.525 232.109 476.827 232.03 477.14 232.03H477.721V232.958H477.14C476.685 232.958 476.32 233.1 476.044 233.383C475.768 233.659 475.63 234.024 475.63 234.479V237.632H474.59V232.053ZM480.894 237.632C480.715 237.632 480.563 237.584 480.436 237.487C480.317 237.383 480.216 237.222 480.134 237.006L478.211 232.053H479.307L480.894 236.458H480.917L482.505 232.053H483.6L481.409 237.632H480.894ZM486.32 237.722C485.664 237.722 485.135 237.535 484.732 237.163C484.337 236.783 484.14 236.287 484.14 235.676V234.132C484.14 233.476 484.337 232.951 484.732 232.556C485.135 232.161 485.664 231.963 486.32 231.963H487.237C487.871 231.963 488.381 232.157 488.769 232.545C489.156 232.932 489.35 233.447 489.35 234.088V235.139H485.18V235.676C485.18 236.018 485.284 236.294 485.493 236.503C485.701 236.712 485.977 236.816 486.32 236.816H487.181C487.517 236.816 487.789 236.73 487.997 236.559C488.206 236.38 488.31 236.145 488.31 235.854H489.328C489.328 236.414 489.13 236.865 488.735 237.207C488.34 237.55 487.818 237.722 487.17 237.722H486.32ZM488.31 234.311V234.088C488.31 233.715 488.21 233.417 488.008 233.193C487.815 232.97 487.558 232.858 487.237 232.858H486.32C485.977 232.858 485.701 232.977 485.493 233.216C485.284 233.447 485.18 233.756 485.18 234.144V234.311H488.31ZM458.217 242.805H462.12C462.739 242.805 463.234 242.98 463.607 243.331C463.987 243.674 464.177 244.132 464.177 244.706V245.824C464.177 246.428 463.976 246.916 463.573 247.289C463.178 247.654 462.653 247.837 461.997 247.837H459.28V250.632H458.217V242.805ZM461.974 246.898C462.317 246.898 462.593 246.797 462.802 246.596C463.011 246.387 463.115 246.115 463.115 245.78V244.717C463.115 244.427 463.022 244.192 462.835 244.013C462.649 243.834 462.403 243.744 462.097 243.744H459.28V246.898H461.974ZM467.14 250.722C466.484 250.722 465.955 250.524 465.552 250.129C465.157 249.734 464.959 249.216 464.959 248.575V247.121C464.959 246.473 465.161 245.951 465.563 245.556C465.966 245.161 466.499 244.963 467.162 244.963H468.101C468.765 244.963 469.298 245.161 469.7 245.556C470.103 245.951 470.304 246.473 470.304 247.121V248.575C470.304 249.216 470.099 249.734 469.689 250.129C469.287 250.524 468.754 250.722 468.09 250.722H467.14ZM468.079 249.805C468.437 249.805 468.724 249.689 468.94 249.458C469.156 249.227 469.264 248.918 469.264 248.53V247.155C469.264 246.767 469.156 246.458 468.94 246.227C468.731 245.996 468.452 245.88 468.101 245.88H467.162C466.812 245.88 466.529 245.996 466.312 246.227C466.104 246.458 465.999 246.767 465.999 247.155V248.53C465.999 248.918 466.104 249.227 466.312 249.458C466.521 249.689 466.801 249.805 467.151 249.805H468.079ZM473.604 250.722C472.948 250.722 472.419 250.524 472.016 250.129C471.621 249.734 471.424 249.216 471.424 248.575V247.121C471.424 246.473 471.625 245.951 472.028 245.556C472.43 245.161 472.963 244.963 473.627 244.963H474.566C475.229 244.963 475.762 245.161 476.165 245.556C476.567 245.951 476.769 246.473 476.769 247.121V248.575C476.769 249.216 476.564 249.734 476.154 250.129C475.751 250.524 475.218 250.722 474.555 250.722H473.604ZM474.544 249.805C474.901 249.805 475.188 249.689 475.404 249.458C475.621 249.227 475.729 248.918 475.729 248.53V247.155C475.729 246.767 475.621 246.458 475.404 246.227C475.196 245.996 474.916 245.88 474.566 245.88H473.627C473.276 245.88 472.993 245.996 472.777 246.227C472.568 246.458 472.464 246.767 472.464 247.155V248.53C472.464 248.918 472.568 249.227 472.777 249.458C472.986 249.689 473.265 249.805 473.615 249.805H474.544ZM479.778 250.632C479.189 250.632 478.764 250.509 478.503 250.263C478.242 250.01 478.112 249.604 478.112 249.045V242.805H479.152V249.011C479.152 249.264 479.204 249.447 479.308 249.559C479.413 249.671 479.584 249.727 479.823 249.727H480.27V250.632H479.778Z" fill="#D8D8D8"/>
<defs>
<filter id="filter0_d_8553_9317" x="208.624" y="0.763676" width="89.4531" height="89.4531" filterUnits="userSpaceOnUse" color-interpolation-filters="sRGB">
<feFlood flood-opacity="0" result="BackgroundImageFix"/>
<feColorMatrix in="SourceAlpha" type="matrix" values="0 0 0 0 0 0 0 0 0 0 0 0 0 0 0 0 0 0 127 0" result="hardAlpha"/>
<feOffset dy="1.11816"/>
<feGaussianBlur stdDeviation="1.67724"/>
<feColorMatrix type="matrix" values="0 0 0 0 0 0 0 0 0 0 0 0 0 0 0 0 0 0 0.15 0"/>
<feBlend mode="normal" in2="BackgroundImageFix" result="effect1_dropShadow_8553_9317"/>
<feBlend mode="normal" in="SourceGraphic" in2="effect1_dropShadow_8553_9317" result="shape"/>
</filter>
<filter id="filter1_d_8553_9317" x="0.645514" y="254.586" width="89.4531" height="89.4531" filterUnits="userSpaceOnUse" color-interpolation-filters="sRGB">
<feFlood flood-opacity="0" result="BackgroundImageFix"/>
<feColorMatrix in="SourceAlpha" type="matrix" values="0 0 0 0 0 0 0 0 0 0 0 0 0 0 0 0 0 0 127 0" result="hardAlpha"/>
<feOffset dy="1.11816"/>
<feGaussianBlur stdDeviation="1.67724"/>
<feColorMatrix type="matrix" values="0 0 0 0 0 0 0 0 0 0 0 0 0 0 0 0 0 0 0.15 0"/>
<feBlend mode="normal" in2="BackgroundImageFix" result="effect1_dropShadow_8553_9317"/>
<feBlend mode="normal" in="SourceGraphic" in2="effect1_dropShadow_8553_9317" result="shape"/>
</filter>
<filter id="filter2_d_8553_9317" x="428.901" y="254.586" width="89.4531" height="89.4531" filterUnits="userSpaceOnUse" color-interpolation-filters="sRGB">
<feFlood flood-opacity="0" result="BackgroundImageFix"/>
<feColorMatrix in="SourceAlpha" type="matrix" values="0 0 0 0 0 0 0 0 0 0 0 0 0 0 0 0 0 0 127 0" result="hardAlpha"/>
<feOffset dy="1.11816"/>
<feGaussianBlur stdDeviation="1.67724"/>
<feColorMatrix type="matrix" values="0 0 0 0 0 0 0 0 0 0 0 0 0 0 0 0 0 0 0.15 0"/>
<feBlend mode="normal" in2="BackgroundImageFix" result="effect1_dropShadow_8553_9317"/>
<feBlend mode="normal" in="SourceGraphic" in2="effect1_dropShadow_8553_9317" result="shape"/>
</filter>
<filter id="filter3_d_8553_9317" x="208.624" y="140.534" width="89.4531" height="89.4531" filterUnits="userSpaceOnUse" color-interpolation-filters="sRGB">
<feFlood flood-opacity="0" result="BackgroundImageFix"/>
<feColorMatrix in="SourceAlpha" type="matrix" values="0 0 0 0 0 0 0 0 0 0 0 0 0 0 0 0 0 0 127 0" result="hardAlpha"/>
<feOffset dy="1.11816"/>
<feGaussianBlur stdDeviation="1.67724"/>
<feColorMatrix type="matrix" values="0 0 0 0 0 0 0 0 0 0 0 0 0 0 0 0 0 0 0.15 0"/>
<feBlend mode="normal" in2="BackgroundImageFix" result="effect1_dropShadow_8553_9317"/>
<feBlend mode="normal" in="SourceGraphic" in2="effect1_dropShadow_8553_9317" result="shape"/>
</filter>
</defs>
</svg>
