<svg width="100" height="48" viewBox="0 0 100 48" fill="none" xmlns="http://www.w3.org/2000/svg">
<path fill-rule="evenodd" clip-rule="evenodd" d="M68.3731 47.3441L60.739 39.6727V23.8913L84.5138 0H99.1275L100 0.876743V7.8907L86.4768 21.6994L87.7855 23.1241H98.9094L100 24.3296V31.782L84.5138 47.3441H68.3731ZM76.8797 8.76744V23.2337L84.2957 30.686H99.1275V24.0009H87.3493L83.8594 20.3843V11.836L87.7855 7.78111H99.1275V0.876743H84.7319L76.8797 8.76744ZM7.56706 47.4596V24.1232H0V15.8655L15.5728 0.230906H23.6882L25.0042 1.55214L26.7589 0.230906H39.261V8.59871L31.6939 16.416V31.7203L15.7921 47.4596H7.56706ZM24.0172 8.0482V31.2799H30.9263V8.59871L23.2495 0.891522H16.4501V8.0482H24.0172ZM38.603 0.891522H28.2942L35.0936 7.71789H38.603V0.891522Z" fill="#D2F67B"/>
<path fill-rule="evenodd" clip-rule="evenodd" d="M31.4087 47.3441V39.2343V35.1793V27.6174L31.4215 23.7817H31.6268V15.7814L47.3312 0H70.6697V8.76744V15.7814L67.0708 20.1651L64.5624 22.7953V23.3433H70.6697V32.0012L55.4015 47.3441H31.4087ZM70.0153 24.1105H47.9856V30.686H48.0241V30.7213H70.0539V24.1457H70.0153V24.1105ZM66.0892 12.4936H47.7674V18.6308H47.806V18.6661H66.1278V12.5289H66.0892V12.4936ZM70.0153 0.657557H47.9856V7.45233H48.0241V7.48758H70.0539V0.69281H70.0153V0.657557Z" fill="#D2F67B"/>
</svg>
