<svg width="26" height="23" viewBox="0 0 26 23" fill="none" xmlns="http://www.w3.org/2000/svg">
<path d="M21.3371 8.06044C21.3434 7.93678 21.3465 7.8119 21.3465 7.6863C21.3465 3.46473 17.9121 0.03125 13.6909 0.03125C9.46965 0.03125 6.0358 3.46547 6.0358 7.6863C6.0358 7.70813 6.03726 7.72946 6.0375 7.75129C3.02563 8.7816 0.853516 11.6385 0.853516 14.9948C0.853516 19.2164 4.28774 22.6505 8.50857 22.6505C10.3228 22.6505 11.9903 22.0149 13.3036 20.957C14.6166 22.0152 16.2842 22.6505 18.0984 22.6505C22.3199 22.6505 25.754 19.216 25.754 14.9948C25.754 11.9308 23.9437 9.28292 21.3371 8.06042L21.3371 8.06044ZM13.6907 0.725698C17.5292 0.725698 20.6518 3.84837 20.6518 7.68614C20.6518 7.71717 20.6476 7.74651 20.6469 7.77731C19.8491 7.49458 18.9913 7.33939 18.0978 7.33939C16.2835 7.33939 14.616 7.97491 13.303 9.03285C11.9897 7.97466 10.3222 7.33939 8.50796 7.33939C7.89788 7.33939 7.30551 7.41311 6.73641 7.54865C6.81133 3.77445 9.8993 0.725401 13.6906 0.725401L13.6907 0.725698ZM13.3035 20.0285C11.972 18.7596 11.1374 16.9747 11.1374 14.9948C11.1374 14.9643 11.1415 14.9347 11.142 14.9044C11.9402 15.1871 12.7976 15.3423 13.6911 15.3423C14.3012 15.3423 14.8938 15.2686 15.4629 15.133C15.4246 17.0573 14.6031 18.7898 13.3034 20.0284L13.3035 20.0285ZM13.6907 14.6478C12.8086 14.6478 11.9671 14.4761 11.19 14.1755C11.385 12.5249 12.1587 11.0525 13.3035 9.96164C14.5035 11.1054 15.2955 12.6689 15.4402 14.4165C14.8803 14.5625 14.2959 14.6478 13.6907 14.6478V14.6478ZM10.5249 13.8786C8.43863 12.8074 6.96237 10.7165 6.7592 8.26573C7.31932 8.11975 7.90348 8.03416 8.50846 8.03416C10.1151 8.03416 11.5921 8.58652 12.7718 9.50434C11.5894 10.651 10.7752 12.1735 10.525 13.8787L10.5249 13.8786ZM13.8352 9.50406C15.0146 8.58603 16.4918 8.03388 18.098 8.03388C18.9802 8.03388 19.8216 8.20555 20.5992 8.50623C20.2898 11.1289 18.5178 13.3032 16.123 14.2008C15.9329 12.3658 15.0915 10.7227 13.8353 9.50402L13.8352 9.50406ZM8.50846 21.9556C4.67051 21.9556 1.54803 18.833 1.54803 14.9946C1.54803 12.0131 3.43671 9.47016 6.07706 8.48106C6.35906 11.2038 8.07413 13.5062 10.4526 14.6214C10.4463 14.745 10.4431 14.8697 10.4431 14.9948C10.4431 17.1468 11.3371 19.0936 12.7719 20.4857C11.5923 21.4035 10.1153 21.9559 8.50863 21.9559L8.50846 21.9556ZM18.0984 21.9556C16.492 21.9556 15.015 21.4033 13.8356 20.4854C15.2701 19.0931 16.1644 17.147 16.1644 14.9945C16.1644 14.9729 16.1629 14.9518 16.1627 14.9302C18.8341 14.0161 20.844 11.665 21.2645 8.80278C23.5142 9.95793 25.0598 12.2972 25.0598 14.9945C25.0593 18.8329 21.9367 21.9555 18.0987 21.9555L18.0984 21.9556Z" fill="#D2F67B"/>
</svg>
