<svg width="26" height="27" viewBox="0 0 26 27" fill="none" xmlns="http://www.w3.org/2000/svg">
<path d="M13.1078 5.01758C15.1996 5.01758 17.0959 5.83129 18.4707 7.14657C19.8504 8.46634 20.7033 10.2894 20.7033 12.3028C20.7033 14.3159 19.8501 16.139 18.4707 17.4591C17.0959 18.7743 15.1996 19.5881 13.1078 19.5881C11.016 19.5881 9.11964 18.7743 7.74482 17.4591C6.36519 16.1393 5.51221 14.3162 5.51221 12.3028C5.51221 10.2897 6.3655 8.46664 7.74482 7.14657C9.11964 5.83129 11.0157 5.01758 13.1078 5.01758ZM17.9069 7.73566C16.681 6.56274 14.9845 5.83724 13.1078 5.83724C11.2311 5.83724 9.53458 6.56278 8.30867 7.73566C7.08749 8.90408 6.33218 10.5187 6.33218 12.3025C6.33218 14.0863 7.0875 15.7009 8.30867 16.8694C9.53458 18.0423 11.2311 18.7678 13.1078 18.7678C14.9845 18.7678 16.681 18.0422 17.9069 16.8694C19.1281 15.7009 19.8834 14.0863 19.8834 12.3025C19.8834 10.5187 19.128 8.90415 17.9069 7.73566Z" fill="#D2F67B"/>
<path d="M13.1075 8.41357C14.2193 8.41357 15.2281 8.84723 15.9608 9.54806C16.698 10.2534 17.154 11.2276 17.154 12.3031C17.154 13.3787 16.698 14.3526 15.9608 15.0582C15.2284 15.759 14.2193 16.1927 13.1075 16.1927C11.9957 16.1927 10.9869 15.759 10.2542 15.0582C9.517 14.3529 9.06104 13.3787 9.06104 12.3031C9.06104 11.2276 9.51704 10.2537 10.2542 9.54806C10.9866 8.84724 11.9957 8.41357 13.1075 8.41357ZM15.397 10.1372C14.8135 9.5787 14.0039 9.23324 13.1075 9.23324C12.2107 9.23324 11.4015 9.57873 10.818 10.1372C10.239 10.6911 9.881 11.4566 9.881 12.3027C9.881 13.1489 10.239 13.9147 10.818 14.4683C11.4015 15.0268 12.2111 15.3722 13.1075 15.3722C14.0039 15.3722 14.8135 15.0268 15.397 14.4683C15.976 13.9143 16.334 13.1489 16.334 12.3027C16.334 11.4566 15.976 10.6908 15.397 10.1372Z" fill="#D2F67B"/>
<path d="M2.78328 0.172852H23.4334C23.9302 0.172852 24.3818 0.375685 24.7088 0.702712C25.0359 1.02975 25.2387 1.48097 25.2387 1.97811V22.6283C25.2387 23.1251 25.0359 23.5766 24.7088 23.9037C24.3818 24.2307 23.9306 24.4335 23.4334 24.4335H2.78328C2.28648 24.4335 1.83491 24.2307 1.50789 23.9037C1.18085 23.5766 0.978027 23.1254 0.978027 22.6283V19.6243H1.77146V14.863H0.978027V9.74394H1.77146V4.98265H0.978027V1.97864C0.978027 1.48184 1.18086 1.03027 1.50789 0.703246C1.83491 0.376219 2.28615 0.173385 2.78328 0.173385V0.172852ZM23.4334 0.992819H2.78328C2.51284 0.992819 2.26653 1.10391 2.08752 1.28262C1.90881 1.46133 1.79772 1.70764 1.79772 1.97838V4.16273H2.01515C2.173 4.16273 2.31656 4.22736 2.42081 4.3316L2.4223 4.33309C2.52654 4.43734 2.59117 4.58089 2.59117 4.73875V9.98734C2.59117 10.1443 2.52654 10.2879 2.4223 10.393L2.42051 10.3948C2.31567 10.499 2.17181 10.5637 2.01485 10.5637H1.79742V14.0431H2.01485C2.17271 14.0431 2.31627 14.1077 2.42051 14.2119L2.422 14.2134C2.52625 14.3177 2.59087 14.4612 2.59087 14.6191V19.8677C2.59087 20.0246 2.52624 20.1682 2.422 20.2733L2.42021 20.2751C2.31537 20.3794 2.17152 20.444 2.01455 20.444H1.79712V22.6283C1.79712 22.8988 1.90822 23.1451 2.08693 23.3241C2.26564 23.5028 2.51195 23.6139 2.78269 23.6139H23.4329C23.7033 23.6139 23.9496 23.5028 24.1283 23.3241C24.307 23.1454 24.4181 22.8991 24.4181 22.6283V1.97818C24.4181 1.70774 24.307 1.46143 24.1283 1.28242C23.9496 1.10371 23.7033 0.992616 23.4329 0.992616L23.4334 0.992819Z" fill="#D2F67B"/>
<path d="M0.760209 4.16211H2.01471C2.17257 4.16211 2.31613 4.22674 2.42037 4.33098L2.42186 4.33247C2.52611 4.43672 2.59074 4.58028 2.59074 4.73813V9.98672C2.59074 10.1455 2.5261 10.2896 2.42186 10.3939L2.42097 10.393C2.31583 10.4978 2.17197 10.5627 2.01442 10.5627H0.759913C0.602652 10.5627 0.458498 10.4978 0.353361 10.393L0.352467 10.3939C0.248221 10.2896 0.183594 10.1455 0.183594 9.98672V4.73813C0.183594 4.58028 0.248226 4.43672 0.352467 4.33247L0.353956 4.33098C0.458202 4.22674 0.601761 4.16211 0.759617 4.16211H0.760209ZM1.7711 4.98208H1.0039V9.74337H1.7711V4.98208Z" fill="#D2F67B"/>
<path d="M0.760209 14.043H2.01471C2.17257 14.043 2.31613 14.1076 2.42037 14.2118L2.42186 14.2133C2.52611 14.3176 2.59074 14.4611 2.59074 14.619V19.8676C2.59074 20.0266 2.5261 20.1705 2.42186 20.2747L2.42097 20.2738C2.31583 20.3787 2.17197 20.4436 2.01442 20.4436H0.759913C0.602652 20.4436 0.458498 20.3787 0.353361 20.2738L0.352467 20.2747C0.248221 20.1705 0.183594 20.0263 0.183594 19.8676V14.619C0.183594 14.4611 0.248226 14.3176 0.352467 14.2133L0.353956 14.2118C0.458202 14.1076 0.601761 14.043 0.759617 14.043H0.760209ZM1.7711 14.8629H1.0039V19.6242H1.7711V14.8629Z" fill="#D2F67B"/>
<path d="M13.5179 5.4279C13.5179 5.20153 13.3344 5.01807 13.1081 5.01807C12.8817 5.01807 12.6982 5.20153 12.6982 5.4279V7.14942C12.6982 7.37578 12.8817 7.55925 13.1081 7.55925C13.3344 7.55925 13.5179 7.37578 13.5179 7.14942V5.4279Z" fill="#D2F67B"/>
<path d="M16.8994 6.55381C17.0126 6.35842 16.9459 6.10823 16.7505 5.99506C16.5551 5.88188 16.3049 5.94859 16.1918 6.14398L15.331 7.63469C15.2178 7.83008 15.2845 8.08027 15.4799 8.19344C15.6753 8.30662 15.9255 8.23991 16.0387 8.04453L16.8994 6.55381Z" fill="#D2F67B"/>
<path d="M19.2672 9.21982C19.4626 9.10664 19.5293 8.85645 19.4161 8.66107C19.3029 8.46568 19.0527 8.39897 18.8574 8.51215L17.3666 9.37291C17.1713 9.48609 17.1045 9.73628 17.2177 9.93166C17.3309 10.127 17.5811 10.1938 17.7765 10.0806L19.2672 9.21982Z" fill="#D2F67B"/>
<path d="M19.9839 12.7127C20.2103 12.7127 20.3937 12.5293 20.3937 12.3029C20.3937 12.0765 20.2103 11.8931 19.9839 11.8931H18.2624C18.036 11.8931 17.8525 12.0765 17.8525 12.3029C17.8525 12.5293 18.036 12.7127 18.2624 12.7127H19.9839Z" fill="#D2F67B"/>
<path d="M18.8578 16.0947C19.0532 16.2079 19.3034 16.1412 19.4166 15.9458C19.5298 15.7504 19.4631 15.5002 19.2677 15.3871L17.777 14.5263C17.5816 14.4131 17.3314 14.4798 17.2182 14.6752C17.105 14.8706 17.1717 15.1208 17.3671 15.234L18.8578 16.0947Z" fill="#D2F67B"/>
<path d="M16.1918 18.4625C16.3049 18.6579 16.5551 18.7246 16.7505 18.6114C16.9459 18.4982 17.0126 18.2481 16.8994 18.0527L16.0387 16.5619C15.9255 16.3666 15.6753 16.2998 15.4799 16.413C15.2845 16.5262 15.2178 16.7764 15.331 16.9718L16.1918 18.4625Z" fill="#D2F67B"/>
<path d="M12.6982 19.1782C12.6982 19.4046 12.8817 19.5881 13.1081 19.5881C13.3344 19.5881 13.5179 19.4046 13.5179 19.1782V17.4567C13.5179 17.2303 13.3344 17.0469 13.1081 17.0469C12.8817 17.0469 12.6982 17.2303 12.6982 17.4567V19.1782Z" fill="#D2F67B"/>
<path d="M9.31684 18.0522C9.20365 18.2476 9.27037 18.4978 9.46576 18.6109C9.66114 18.7241 9.91133 18.6574 10.0245 18.462L10.8853 16.9713C10.9984 16.7759 10.9317 16.5257 10.7363 16.4125C10.541 16.2994 10.2908 16.3661 10.1776 16.5615L9.31684 18.0522Z" fill="#D2F67B"/>
<path d="M6.94915 15.3866C6.75377 15.4998 6.68705 15.7499 6.80024 15.9453C6.91342 16.1407 7.1636 16.2074 7.35899 16.0943L8.8497 15.2335C9.04509 15.1203 9.11181 14.8701 8.99863 14.6747C8.88544 14.4794 8.63526 14.4126 8.43987 14.5258L6.94915 15.3866Z" fill="#D2F67B"/>
<path d="M6.23307 11.8931C6.00671 11.8931 5.82324 12.0765 5.82324 12.3029C5.82324 12.5293 6.00671 12.7127 6.23307 12.7127H7.95459C8.18096 12.7127 8.36443 12.5293 8.36443 12.3029C8.36443 12.0765 8.18096 11.8931 7.95459 11.8931H6.23307Z" fill="#D2F67B"/>
<path d="M7.35898 8.51117C7.1636 8.39799 6.91341 8.46471 6.80023 8.66009C6.68706 8.85548 6.75377 9.10567 6.94915 9.21884L8.43987 10.0796C8.63526 10.1928 8.88545 10.1261 8.99862 9.93068C9.1118 9.7353 9.04509 9.48511 8.8497 9.37193L7.35898 8.51117Z" fill="#D2F67B"/>
<path d="M10.024 6.14398C9.91084 5.94859 9.66065 5.88188 9.46527 5.99506C9.26988 6.10824 9.20317 6.35843 9.31635 6.55381L10.1771 8.04453C10.2903 8.23991 10.5405 8.30663 10.7359 8.19345C10.9312 8.08027 10.998 7.83008 10.8848 7.6347L10.024 6.14398Z" fill="#D2F67B"/>
<path d="M13.5179 8.86882C13.5179 8.64245 13.3344 8.45898 13.1081 8.45898C12.8817 8.45898 12.6982 8.64245 12.6982 8.86882V9.72866C12.6982 9.95502 12.8817 10.1385 13.1081 10.1385C13.3344 10.1385 13.5179 9.95502 13.5179 9.72866V8.86882Z" fill="#D2F67B"/>
<path d="M15.1784 9.53251C15.2907 9.33712 15.2234 9.08753 15.028 8.97524C14.8326 8.86295 14.583 8.93027 14.4708 9.12566L14.0407 9.87026C13.9284 10.0656 13.9957 10.3152 14.1911 10.4275C14.3865 10.5398 14.6361 10.4725 14.7483 10.2771L15.1784 9.53251Z" fill="#D2F67B"/>
<path d="M16.2859 10.9398C16.4813 10.8275 16.5486 10.5779 16.4363 10.3825C16.324 10.1871 16.0744 10.1198 15.879 10.2321L15.1344 10.6622C14.9391 10.7744 14.8717 11.024 14.984 11.2194C15.0963 11.4148 15.3459 11.4821 15.5413 11.3698L16.2859 10.9398Z" fill="#D2F67B"/>
<path d="M16.5426 12.7127C16.769 12.7127 16.9525 12.5293 16.9525 12.3029C16.9525 12.0765 16.769 11.8931 16.5426 11.8931H15.6828C15.4564 11.8931 15.2729 12.0765 15.2729 12.3029C15.2729 12.5293 15.4564 12.7127 15.6828 12.7127H16.5426Z" fill="#D2F67B"/>
<path d="M15.8774 14.374C16.0727 14.4872 16.3229 14.4205 16.4361 14.2251C16.5493 14.0297 16.4826 13.7795 16.2872 13.6664L15.5426 13.2363C15.3472 13.1231 15.097 13.1898 14.9838 13.3852C14.8706 13.5806 14.9374 13.8308 15.1327 13.9439L15.8774 14.374Z" fill="#D2F67B"/>
<path d="M14.471 15.482C14.5842 15.6774 14.8344 15.7441 15.0298 15.6309C15.2252 15.5177 15.2919 15.2676 15.1787 15.0722L14.7486 14.3276C14.6354 14.1322 14.3853 14.0655 14.1899 14.1787C13.9945 14.2918 13.9278 14.542 14.041 14.7374L14.471 15.482Z" fill="#D2F67B"/>
<path d="M12.6982 15.7375C12.6982 15.9638 12.8817 16.1473 13.1081 16.1473C13.3344 16.1473 13.5179 15.9638 13.5179 15.7375V14.8776C13.5179 14.6512 13.3344 14.4678 13.1081 14.4678C12.8817 14.4678 12.6982 14.6512 12.6982 14.8776V15.7375Z" fill="#D2F67B"/>
<path d="M11.0368 15.0739C10.9245 15.2693 10.9918 15.5188 11.1872 15.6311C11.3826 15.7434 11.6322 15.6761 11.7444 15.4807L12.1745 14.7361C12.2868 14.5407 12.2195 14.2911 12.0241 14.1789C11.8287 14.0666 11.5791 14.1339 11.4668 14.3293L11.0368 15.0739Z" fill="#D2F67B"/>
<path d="M9.92914 13.6664C9.73375 13.7795 9.66703 14.0297 9.78022 14.2251C9.8934 14.4205 10.1436 14.4872 10.339 14.374L11.0836 13.9439C11.279 13.8308 11.3457 13.5806 11.2325 13.3852C11.1193 13.1898 10.8691 13.1231 10.6737 13.2363L9.92914 13.6664Z" fill="#D2F67B"/>
<path d="M9.6735 11.8931C9.44714 11.8931 9.26367 12.0765 9.26367 12.3029C9.26367 12.5293 9.44714 12.7127 9.6735 12.7127H10.5333C10.7597 12.7127 10.9432 12.5293 10.9432 12.3029C10.9432 12.0765 10.7597 11.8931 10.5333 11.8931H9.6735Z" fill="#D2F67B"/>
<path d="M10.3372 10.2321C10.1418 10.1198 9.89222 10.1871 9.77993 10.3825C9.66764 10.5779 9.73496 10.8275 9.93034 10.9398L10.6749 11.3698C10.8703 11.4821 11.1199 11.4148 11.2322 11.2194C11.3445 11.024 11.2772 10.7745 11.0818 10.6622L10.3372 10.2321Z" fill="#D2F67B"/>
<path d="M11.7444 9.12516C11.6321 8.92978 11.3826 8.86247 11.1872 8.97475C10.9918 9.08703 10.9245 9.33663 11.0368 9.53201L11.4668 10.2766C11.5791 10.472 11.8287 10.5393 12.0241 10.427C12.2195 10.3147 12.2868 10.0652 12.1745 9.86977L11.7444 9.12516Z" fill="#D2F67B"/>
<path d="M3.76534 23.6139H9.13608C9.36244 23.6139 9.54591 23.7974 9.54591 24.0237C9.54591 24.1229 9.51076 24.2137 9.45238 24.2846L8.13444 26.2263L7.79668 25.9972L8.13593 26.2275C8.0561 26.3448 7.92625 26.408 7.794 26.4071H5.10391C4.94903 26.4071 4.8141 26.3213 4.74441 26.1944L3.42678 24.2528L3.42529 24.2537C3.29811 24.0663 3.34696 23.8114 3.5343 23.6842C3.60519 23.6359 3.6859 23.613 3.76573 23.6133L3.76534 23.6139ZM8.3646 24.4339H4.53582L5.31889 25.5877H7.58161L8.3646 24.4339Z" fill="#D2F67B"/>
<path d="M16.2883 23.6139H21.659C21.8854 23.6139 22.0689 23.7974 22.0689 24.0237C22.0689 24.1229 22.0337 24.2137 21.9753 24.2846L20.6574 26.2263L20.3196 25.9972L20.6589 26.2275C20.5791 26.3448 20.4492 26.408 20.3169 26.4071H17.6269C17.472 26.4071 17.3371 26.3213 17.2674 26.1944L15.9497 24.2528L15.9482 24.2537C15.8211 24.0663 15.8699 23.8114 16.0572 23.6842C16.1281 23.6359 16.2089 23.613 16.2887 23.6133L16.2883 23.6139ZM20.8876 24.4339H17.0588L17.8418 25.5877H20.1046L20.8876 24.4339Z" fill="#D2F67B"/>
</svg>
