<svg width="34" height="29" viewBox="0 0 34 29" fill="none" xmlns="http://www.w3.org/2000/svg">
<path d="M10.0548 25.1736C9.83261 25.1769 9.64968 24.9997 9.64633 24.7775C9.64274 24.5556 9.81992 24.3724 10.0421 24.3691C10.3536 24.3588 10.6635 24.319 10.9673 24.2503C11.0719 24.2249 11.1826 24.2424 11.2743 24.2991C11.3657 24.3559 11.4308 24.4469 11.4548 24.552C11.4787 24.6571 11.4593 24.7672 11.4012 24.858C11.3432 24.9487 11.251 25.0124 11.1457 25.0347C10.792 25.1154 10.4315 25.1621 10.069 25.1736L10.0548 25.1736ZM8.71734 25.0488C8.68717 25.0488 8.657 25.0455 8.62756 25.0388C8.27344 24.9583 7.92793 24.8439 7.59583 24.6968C7.4979 24.6537 7.42128 24.5735 7.38274 24.4739C7.34395 24.3743 7.34658 24.2632 7.38968 24.1655C7.47947 23.9618 7.71723 23.8696 7.92099 23.9594C8.20591 24.0851 8.50234 24.183 8.80597 24.2525C9.0102 24.2936 9.14908 24.484 9.1261 24.6911C9.10311 24.8982 8.92569 25.0534 8.71738 25.0488L8.71734 25.0488ZM12.3182 24.5795C12.1334 24.5795 11.9722 24.4531 11.9279 24.2735C11.8836 24.094 11.9674 23.9074 12.1312 23.8212C12.4073 23.6769 12.6687 23.5061 12.9122 23.3117C12.9951 23.2418 13.1028 23.2083 13.2108 23.2188C13.319 23.2294 13.4181 23.2832 13.4859 23.368C13.5537 23.4527 13.5843 23.5614 13.5709 23.669C13.5573 23.7767 13.501 23.8744 13.4143 23.94C13.1308 24.1667 12.8263 24.3657 12.5044 24.534C12.447 24.564 12.3831 24.5795 12.3182 24.5795L12.3182 24.5795ZM6.60817 24.0312C6.51719 24.031 6.42883 24.0001 6.35749 23.9433C6.074 23.7173 5.81277 23.4647 5.5772 23.1891C5.43306 23.0201 5.45317 22.766 5.62221 22.6219C5.79125 22.4777 6.04505 22.4979 6.18919 22.6669C6.39176 22.9037 6.6161 23.1209 6.85964 23.315C6.99325 23.4216 7.04496 23.6009 6.98846 23.7623C6.93219 23.9237 6.77991 24.0317 6.60896 24.0317L6.60817 24.0312ZM14.0985 23.0629C14.0118 23.0632 13.9275 23.0349 13.8585 22.9825C13.6806 22.8498 13.644 22.598 13.7767 22.4201C13.9629 22.1701 14.125 21.9031 14.2608 21.6222C14.3573 21.4221 14.5979 21.3383 14.7981 21.435C14.9982 21.5315 15.082 21.7721 14.9853 21.9723C14.8275 22.2998 14.6389 22.6118 14.4217 22.9034C14.3451 23.0047 14.2254 23.0636 14.0985 23.0629V23.0629ZM5.14751 22.2048C4.99331 22.2048 4.85252 22.1165 4.78548 21.9776C4.62722 21.6512 4.50104 21.31 4.40885 20.9593C4.35235 20.7443 4.48069 20.5242 4.6957 20.468C4.91071 20.4115 5.13075 20.5398 5.18702 20.7548C5.26603 21.0563 5.37426 21.3493 5.51025 21.6297C5.57083 21.7544 5.56293 21.9014 5.48918 22.0188C5.41568 22.1363 5.28686 22.2077 5.14823 22.2077L5.14751 22.2048ZM15.0467 20.9229V20.9231C15.0208 20.9234 14.995 20.9207 14.9696 20.9157C14.7524 20.8733 14.6102 20.6638 14.6511 20.4464C14.7103 20.1404 14.7397 19.8296 14.7397 19.5179V19.5064C14.7397 19.2845 14.9198 19.1042 15.142 19.1042C15.3639 19.1042 15.5442 19.2845 15.5442 19.5064V19.5179C15.5442 19.8809 15.5095 20.2429 15.4408 20.5992C15.4035 20.7874 15.2385 20.9229 15.0467 20.9232V20.9229ZM4.62588 19.9216C4.40369 19.9216 4.22363 19.7413 4.22363 19.5193V19.5131C4.22363 19.1532 4.25763 18.7941 4.32539 18.4404C4.34287 18.3331 4.40297 18.2374 4.49204 18.1751C4.58112 18.1129 4.69149 18.0892 4.79828 18.1095C4.90507 18.1301 4.99916 18.1928 5.05879 18.2838C5.11841 18.3748 5.13876 18.4859 5.11529 18.592C5.05735 18.8963 5.02814 19.2054 5.02814 19.5152C5.0291 19.6225 4.98719 19.7259 4.91177 19.8023C4.83611 19.8784 4.73315 19.9215 4.62589 19.9215L4.62588 19.9216ZM14.9682 18.574H14.968C14.7855 18.5738 14.6258 18.4507 14.5792 18.2743C14.4999 17.974 14.3914 17.6821 14.2554 17.4027C14.1604 17.203 14.2444 16.9643 14.4434 16.8678C14.6424 16.7716 14.8818 16.8539 14.9795 17.0522C15.1382 17.3788 15.2647 17.7204 15.3568 18.0717C15.4136 18.2865 15.2855 18.5065 15.0707 18.5633C15.0369 18.5712 15.0027 18.5748 14.968 18.574L14.9682 18.574ZM5.14199 17.6422C5.00384 17.6419 4.87526 17.5708 4.80175 17.4537C4.72825 17.3366 4.72011 17.1901 4.77996 17.0656C4.93751 16.7383 5.12618 16.4268 5.34311 16.1356C5.4772 15.9621 5.72573 15.9283 5.90148 16.0593C6.07746 16.1902 6.11601 16.438 5.98791 16.6164C5.80212 16.8664 5.64025 17.1336 5.50474 17.4142C5.43769 17.5536 5.29667 17.6422 5.14199 17.6422L5.14199 17.6422ZM13.8815 16.5024C13.7639 16.5024 13.6521 16.451 13.5757 16.3617C13.3734 16.1246 13.149 15.9079 12.9053 15.714C12.82 15.6482 12.765 15.551 12.752 15.4439C12.7391 15.3371 12.7695 15.2296 12.8365 15.1454C12.9036 15.0611 13.0015 15.0072 13.1085 14.9957C13.2156 14.9845 13.3226 15.0163 13.4059 15.0845C13.6901 15.3103 13.9518 15.5629 14.1877 15.8388C14.2897 15.958 14.3131 16.1259 14.2473 16.2683C14.1817 16.411 14.039 16.5025 13.8819 16.5025L13.8815 16.5024ZM6.6002 15.8112C6.42948 15.811 6.27745 15.7032 6.22094 15.5421C6.16443 15.3812 6.21567 15.2019 6.3488 15.0951C6.63205 14.8681 6.93637 14.6691 7.25793 14.5006C7.45354 14.4033 7.69106 14.4804 7.79259 14.6739C7.89435 14.8671 7.82299 15.1063 7.63193 15.2124C7.35586 15.3575 7.0944 15.5284 6.8509 15.7233C6.77979 15.7801 6.6912 15.8112 6.60022 15.8112H6.6002ZM12.0045 15.1053V15.1051C11.9485 15.1051 11.8931 15.0936 11.8422 15.0711C11.5572 14.9454 11.2608 14.8475 10.9572 14.7788C10.8504 14.7582 10.7563 14.6949 10.6967 14.604C10.6373 14.5127 10.6172 14.4014 10.6411 14.2951C10.6651 14.189 10.7309 14.0971 10.8238 14.0403C10.9169 13.9836 11.0288 13.9671 11.1341 13.9944C11.4885 14.0746 11.8342 14.1885 12.1666 14.3348C12.3406 14.4117 12.4371 14.5997 12.3979 14.7859C12.3588 14.972 12.1946 15.1051 12.0045 15.1051L12.0045 15.1053ZM8.70533 14.7914C8.50061 14.7914 8.3287 14.6375 8.30571 14.434C8.28297 14.2307 8.41657 14.0425 8.61602 13.997C8.9699 13.9163 9.33072 13.8696 9.69347 13.8577C9.91567 13.8502 10.1017 14.0243 10.1091 14.2465C10.1165 14.4685 9.94248 14.6547 9.72028 14.6622C9.40878 14.6729 9.09893 14.7131 8.79509 14.7828C8.76564 14.7888 8.73547 14.7917 8.7053 14.7914L8.70533 14.7914Z" fill="#D2F67B"/>
<path d="M20.3035 3.97373H20.3188C20.6359 3.96176 20.9643 3.95961 21.2903 3.96847H21.301C21.5232 3.97134 21.7057 3.79368 21.7088 3.57148C21.7117 3.34928 21.534 3.16683 21.3118 3.16396C20.9684 3.15535 20.622 3.15726 20.288 3.16995C20.066 3.17426 19.8893 3.35767 19.8936 3.57986C19.8977 3.80206 20.0813 3.97876 20.3035 3.97445L20.3035 3.97373Z" fill="#D2F67B"/>
<path d="M25.8046 6.18165C25.7225 6.25036 25.671 6.34901 25.6617 6.45556C25.6523 6.56211 25.6861 6.66818 25.7551 6.74983C25.824 6.83171 25.9229 6.88248 26.0295 6.89134C26.1362 6.89996 26.2421 6.86596 26.3235 6.79652C26.8323 6.36673 26.9388 5.93648 26.9388 5.65085V5.63265C26.934 5.41405 26.7554 5.23902 26.5366 5.23926H26.5284H26.5287C26.4216 5.24117 26.3199 5.28547 26.2459 5.36257C26.1717 5.43966 26.1315 5.5431 26.1336 5.65013C26.1343 5.85939 25.9574 6.05501 25.8046 6.18167V6.18165Z" fill="#D2F67B"/>
<path d="M22.5795 4.06016C22.9087 4.09895 23.2284 4.15067 23.5315 4.21244C23.5581 4.21771 23.5854 4.22034 23.6126 4.22034C23.819 4.22034 23.9919 4.06375 24.0125 3.85832C24.0331 3.65289 23.8947 3.46517 23.6924 3.42399C23.3679 3.35694 23.026 3.30259 22.6748 3.26118H22.6745C22.454 3.23484 22.2538 3.39238 22.2275 3.61315C22.2011 3.83367 22.3587 4.03383 22.5795 4.06017L22.5795 4.06016Z" fill="#D2F67B"/>
<path d="M20.3262 7.32816C19.9991 7.31619 19.6739 7.29272 19.3593 7.26111C19.1383 7.23741 18.9401 7.39759 18.9164 7.61859C18.8927 7.83958 19.0526 8.03808 19.2736 8.06178C19.6088 8.09722 19.95 8.12212 20.296 8.13481H20.3114C20.5336 8.13888 20.717 7.96194 20.721 7.73998C20.7251 7.51779 20.5484 7.33438 20.3262 7.33031L20.3262 7.32816Z" fill="#D2F67B"/>
<path d="M24.761 6.7462C24.4643 6.85538 24.1609 6.94613 23.8532 7.01844C23.6557 7.06632 23.525 7.25428 23.5487 7.45612C23.5724 7.65796 23.7431 7.81048 23.9464 7.81144C23.978 7.8112 24.0096 7.80737 24.0402 7.80019C24.3812 7.71998 24.7171 7.61942 25.0458 7.49898C25.251 7.41948 25.3542 7.18963 25.2771 6.98323C25.2 6.77708 24.9714 6.67101 24.7643 6.74548L24.761 6.7462Z" fill="#D2F67B"/>
<path d="M22.5892 7.23951C22.276 7.2771 21.9516 7.30656 21.623 7.32068C21.4008 7.32595 21.2251 7.51032 21.2306 7.73251C21.2359 7.95471 21.4202 8.13045 21.6424 8.12518H21.6666C22.0133 8.1077 22.3572 8.07897 22.6883 8.03947V8.03923C22.909 8.01289 23.0663 7.81248 23.04 7.59172C23.0134 7.3712 22.813 7.21365 22.5925 7.24023L22.5892 7.23951Z" fill="#D2F67B"/>
<path d="M24.7511 4.55254C25.0372 4.65478 25.3116 4.78718 25.5697 4.9476C25.7564 5.0678 26.0054 5.01392 26.1256 4.82717C26.2461 4.64041 26.1922 4.3914 26.0054 4.27096C25.6982 4.08085 25.3721 3.92354 25.0319 3.80167C24.8305 3.74517 24.6196 3.8522 24.5461 4.04805C24.4728 4.24391 24.5619 4.46323 24.751 4.55254L24.7511 4.55254Z" fill="#D2F67B"/>
<path d="M17.996 4.25814C18.0254 4.25838 18.0547 4.25527 18.0831 4.24881C18.3834 4.18176 18.7025 4.12622 19.0318 4.08264C19.2521 4.05319 19.407 3.85063 19.3776 3.63035C19.3481 3.41007 19.1455 3.25539 18.9253 3.28485C18.5733 3.33178 18.2314 3.39211 17.9096 3.46394V3.46371C17.7104 3.5092 17.577 3.69644 17.5991 3.89948C17.6211 4.10252 17.7918 4.25671 17.996 4.25815L17.996 4.25814Z" fill="#D2F67B"/>
<path d="M15.6196 6.91972C15.7989 7.05093 16.0508 7.01166 16.1818 6.83233C16.3128 6.65299 16.2737 6.4011 16.0944 6.27013C15.8478 6.08984 15.6974 5.90476 15.6605 5.7338C15.6414 5.62629 15.5791 5.53124 15.4884 5.47042C15.3976 5.4096 15.2861 5.3883 15.1793 5.41152C15.0727 5.43474 14.9798 5.50011 14.9224 5.59301C14.8649 5.68591 14.8479 5.7982 14.8747 5.90403C14.9552 6.27683 15.2061 6.61732 15.6196 6.91969L15.6196 6.91972Z" fill="#D2F67B"/>
<path d="M15.8486 5.11446C15.9343 5.11446 16.0176 5.08717 16.0866 5.03593C16.3313 4.86354 16.5964 4.72203 16.8755 4.61428C17.0814 4.53048 17.1803 4.2956 17.0965 4.08968C17.0127 3.88377 16.7778 3.78488 16.5719 3.86868C16.2307 4.00181 15.907 4.17635 15.6084 4.38826C15.4686 4.49146 15.4107 4.67271 15.465 4.83768C15.5194 5.00288 15.6733 5.11446 15.8471 5.11446H15.8486Z" fill="#D2F67B"/>
<path d="M16.6657 7.04858C16.5932 7.25857 16.7045 7.48747 16.9145 7.56002C17.2442 7.67231 17.5799 7.76593 17.9201 7.84039C17.9488 7.84638 17.9778 7.84949 18.0073 7.84973C18.2125 7.84973 18.3851 7.69506 18.4071 7.49082C18.4294 7.28682 18.2943 7.09863 18.0937 7.05457C17.7829 6.98752 17.4762 6.90228 17.1752 6.79981C16.966 6.7287 16.7383 6.8398 16.6657 7.04858L16.6657 7.04858Z" fill="#D2F67B"/>
<path d="M32.5142 13.7855C32.5075 13.7747 32.4994 13.7647 32.4922 13.7546V11.0234C32.4922 9.80247 31.8266 8.65153 30.5667 7.69404L30.548 7.68135V5.83293C30.548 4.31299 29.5129 2.9032 27.6331 1.86265C25.8289 0.863722 23.4382 0.313965 20.9029 0.313965C18.3673 0.313965 15.9767 0.86371 14.1726 1.86265C12.333 2.88095 11.3033 4.25341 11.2597 5.73578H11.2595C11.2587 5.74943 11.2587 5.76307 11.2595 5.77672V8.62861C11.2595 9.21258 11.4606 9.76833 11.8341 10.2805L11.8339 10.2807C11.1934 10.1457 10.5404 10.0784 9.88585 10.0796C4.71835 10.0796 0.513184 14.2838 0.513184 19.451C0.513184 24.6185 4.71816 28.8237 9.88585 28.8237C11.6711 28.8256 13.4192 28.3149 14.9226 27.3521C16.5919 28.0419 18.7555 28.453 21.1496 28.453C26.5584 28.453 30.795 26.3565 30.795 23.6804V21.7146C32.2632 20.8792 33.1415 19.7812 33.1415 18.5637V15.7681C33.1407 15.0821 32.9303 14.4165 32.5146 13.7855L32.5142 13.7855ZM30.5451 8.72576C31.1377 9.28412 31.6848 10.0606 31.6848 11.0212C31.6848 12.2354 30.7965 13.3952 29.1849 14.2876C27.4974 15.2213 25.2462 15.7357 22.8439 15.7357C21.1545 15.7357 19.5302 15.4768 18.1268 14.9982C17.9388 14.6518 17.7293 14.3175 17.4993 13.9974C18.9239 14.6503 20.8092 15.0313 22.8439 15.0313C27.2995 15.0313 30.7896 13.246 30.7896 10.9671H30.7894C30.7843 10.4794 30.6311 10.0048 30.3502 9.60614C30.4654 9.32672 30.5313 9.02959 30.5447 8.7279L30.5451 8.72576ZM17.7675 24.5124C18.8761 24.7659 20.0098 24.8926 21.1471 24.8897C24.129 24.8897 26.8088 24.0732 28.171 22.7559C28.6465 22.6295 29.1143 22.4755 29.5721 22.2947C29.1081 23.0669 28.2667 23.7749 27.1203 24.34C25.4804 25.1498 23.3593 25.5963 21.1469 25.5963V25.5965C19.8609 25.6011 18.5794 25.4433 17.3329 25.1272C17.485 24.9295 17.6305 24.7236 17.7672 24.5124L17.7675 24.5124ZM21.1471 24.0852C20.154 24.0876 19.1634 23.9861 18.1913 23.783C18.3728 23.4371 18.5322 23.0803 18.6685 22.7142C20.0804 23.1097 21.7242 23.3358 23.4955 23.3358C24.3483 23.3362 25.2002 23.2814 26.0459 23.1715C24.7352 23.7466 22.9893 24.0847 21.1471 24.0847L21.1471 24.0852ZM19.178 18.2452V18.2454C20.3867 18.4803 21.6155 18.5969 22.8467 18.5933C25.6832 18.5933 28.1966 18.016 29.9465 17.0815C28.7881 18.1858 26.3002 18.9702 23.4952 18.9702C21.8909 18.9702 20.3911 18.7135 19.1837 18.287C19.1815 18.2727 19.1803 18.2588 19.1782 18.2446L19.178 18.2452ZM22.8467 17.7886V17.7888C21.5619 17.7924 20.2807 17.6564 19.0253 17.3832C18.9178 16.9058 18.7724 16.4377 18.5909 15.9832C19.9777 16.3608 21.4093 16.549 22.8467 16.543C25.3823 16.543 27.7728 15.9933 29.5769 14.9943C30.4846 14.4915 31.1945 13.903 31.6873 13.2572V13.8197C31.6875 15.9705 27.6387 17.788 22.8467 17.788L22.8467 17.7886ZM29.9882 10.9701C29.9882 12.7366 26.718 14.2298 22.8467 14.2298C20.7817 14.2298 18.8543 13.8074 17.5169 13.1128C18.6345 13.3101 19.7676 13.4075 20.9024 13.4044C25.0308 13.4044 28.4779 12.1828 29.8761 10.4144C29.9489 10.5906 29.9867 10.7793 29.9881 10.9701L29.9882 10.9701ZM14.5602 2.56711C16.247 1.63334 18.4989 1.11901 20.9012 1.11901C23.3034 1.11901 25.5546 1.63332 27.2421 2.56711C28.8512 3.45951 29.7421 4.61928 29.7421 5.83348C29.7421 7.04768 28.8538 8.20744 27.2421 9.09984C25.5555 10.0315 23.3049 10.5477 20.903 10.5477C18.5011 10.5477 16.2488 10.0315 14.5608 9.0996C12.9484 8.2072 12.0608 7.04743 12.0608 5.83323C12.0608 4.61928 12.9518 3.46141 14.5608 2.56711H14.5602ZM12.0602 8.6291V8.06666C12.553 8.71216 13.2629 9.30096 14.1706 9.80377C15.9748 10.8027 18.3648 11.3525 20.9008 11.3525C23.4369 11.3525 25.827 10.8027 27.6311 9.80377C28.5388 9.30096 29.2487 8.71241 29.7415 8.06666V8.6291L29.7417 8.62886C29.7381 8.91306 29.6694 9.19224 29.5406 9.44555C29.5293 9.46423 29.5197 9.48362 29.5118 9.50374C28.5967 11.2509 25.0201 12.597 20.8974 12.597C18.551 12.597 16.3803 12.1605 14.7784 11.4625V11.4628C14.4193 11.2418 14.0458 11.0455 13.66 10.8747C12.6585 10.2325 12.0611 9.45489 12.0611 8.62881L12.0602 8.6291ZM1.31516 19.4489C1.31516 17.1765 2.21786 14.9971 3.82465 13.3903C5.43151 11.7837 7.61086 10.881 9.88308 10.881C12.1555 10.881 14.3349 11.7837 15.9415 13.3903C17.5484 14.9971 18.451 17.1765 18.451 19.4489C18.451 21.7212 17.5483 23.9005 15.9415 25.5074C14.3349 27.1142 12.1555 28.0169 9.88308 28.0169C7.61154 28.0142 5.43365 27.1108 3.82753 25.5045C2.22117 23.8984 1.3178 21.7205 1.31516 19.4489ZM29.9873 23.6778C29.9873 25.8284 25.9386 27.646 21.1466 27.646C19.1186 27.646 17.224 27.3201 15.7129 26.7818H15.7132C16.0877 26.4835 16.4387 26.1572 16.7638 25.8056C18.1899 26.2079 19.6653 26.4083 21.1469 26.4011C23.4807 26.4011 25.7285 25.9251 27.4769 25.0603C28.5678 24.5239 29.4211 23.8535 29.9876 23.1079L29.9873 23.6778ZM32.3337 18.5618C32.3337 19.5306 31.5125 20.4316 30.1723 21.1295C30.1491 21.1393 30.1266 21.1508 30.1053 21.1645C28.4714 21.9965 26.0928 22.5307 23.4952 22.5307C21.9496 22.5386 20.4101 22.3384 18.9176 21.9362C19.0287 21.5325 19.1125 21.1221 19.1683 20.7072C20.5765 21.0977 22.0315 21.2921 23.4925 21.2851C26.0281 21.2851 28.4187 20.7354 30.2228 19.7365C31.1305 19.2337 31.8404 18.6451 32.3332 17.9994L32.3337 18.5618ZM29.8338 19.0311C28.1463 19.9649 25.8943 20.4792 23.4928 20.4792C22.0552 20.4873 20.6241 20.2893 19.2431 19.8907C19.2498 19.7439 19.2538 19.5964 19.2538 19.4475C19.2538 19.3517 19.2538 19.2564 19.2486 19.1611C20.4694 19.5492 21.9202 19.7726 23.493 19.7726C27.7274 19.7726 31.0881 18.1603 31.4124 16.0444H31.4121C31.738 15.741 32.0081 15.3828 32.2099 14.9858C32.2916 15.2375 32.3335 15.5004 32.334 15.765C32.3352 16.9803 31.4468 18.1435 29.8352 19.0325L29.8338 19.0311Z" fill="#D2F67B"/>
<path d="M20.9032 9.83979C25.3588 9.83979 28.8489 8.05505 28.8489 5.77634C28.8489 3.49763 25.3587 1.71289 20.9032 1.71289C16.4477 1.71289 12.9575 3.49763 12.9575 5.77634C12.9575 8.05505 16.4477 9.83979 20.9032 9.83979ZM20.9032 2.51745C24.7741 2.51745 28.0447 4.00987 28.0447 5.7764C28.0447 7.54293 24.7745 9.03535 20.9032 9.03535C17.0323 9.03535 13.7617 7.54293 13.7617 5.7764C13.7617 4.00987 17.0321 2.51745 20.9032 2.51745Z" fill="#D2F67B"/>
<path d="M9.88408 26.6512C7.97388 26.6512 6.1417 25.8922 4.79081 24.5416C3.43993 23.1907 2.68115 21.3585 2.68115 19.4483C2.68115 17.5378 3.43993 15.7057 4.79081 14.355C6.1417 13.0041 7.97388 12.2451 9.88408 12.2451C11.7945 12.2451 13.6267 13.0041 14.9774 14.355C16.3282 15.7057 17.087 17.5378 17.087 19.4483C17.0851 21.3578 16.3254 23.1887 14.975 24.5392C13.6248 25.8896 11.7939 26.6491 9.88408 26.6512ZM9.88408 13.0498V13.0496C8.18718 13.0496 6.5598 13.7238 5.35976 14.9236C4.15972 16.1236 3.48571 17.7511 3.48571 19.4482C3.48571 21.1451 4.15972 22.7725 5.35976 23.9725C6.5598 25.1723 8.18725 25.8465 9.88408 25.8465C11.5812 25.8465 13.2086 25.1723 14.4084 23.9725C15.6084 22.7725 16.2825 21.145 16.2825 19.4482C16.281 17.7513 15.6066 16.1246 14.4069 14.9245C13.2074 13.7245 11.5809 13.0495 9.88402 13.0476L9.88408 13.0498Z" fill="#D2F67B"/>
</svg>
