<svg width="26" height="21" viewBox="0 0 26 21" fill="none" xmlns="http://www.w3.org/2000/svg">
<path d="M7.17237 14.5642C6.59738 15.2486 5.72146 15.6319 4.84534 15.6319H0.657064C0.301122 15.6319 0 15.933 0 16.2889C0 16.6448 0.301142 16.946 0.657064 16.946H4.81821C6.10486 16.946 7.30944 16.3985 8.15804 15.413L10.9504 12.1828L10.0743 11.1699L7.17237 14.5642Z" fill="#D2F67B"/>
<path d="M16.6717 5.53012C17.2467 4.84573 18.1226 4.46247 18.9988 4.46247H23.7347L21.7089 6.48831C21.4625 6.73465 21.4625 7.17271 21.7089 7.41904C21.9552 7.66537 22.3932 7.66537 22.6396 7.41904L25.7877 4.27094C25.9246 4.13402 25.9794 3.96979 25.9794 3.80558C25.9794 3.64136 25.8973 3.44963 25.7877 3.34021L22.667 0.191723C22.5301 0.0548053 22.3659 0 22.2017 0C22.0375 0 21.8732 0.0548053 21.7363 0.191723C21.49 0.438059 21.49 0.876113 21.7363 1.12245L23.7622 3.14829H19.026C17.7394 3.14829 16.5075 3.69575 15.6862 4.68128L12.894 7.9117L13.7702 8.92455L16.6717 5.53012Z" fill="#D2F67B"/>
<path d="M25.8153 15.8234L22.6672 12.6753C22.5303 12.5384 22.3661 12.4836 22.2019 12.4836C22.0376 12.4836 21.8734 12.5384 21.7365 12.6753C21.4902 12.9216 21.4902 13.3597 21.7365 13.606L23.7623 15.6319L19.0262 15.6317C18.1228 15.6317 17.2742 15.2484 16.6992 14.564L8.18536 4.68142C7.33677 3.6959 6.13219 3.14844 4.84554 3.14844H0.657064C0.301122 3.14844 0 3.44958 0 3.8055C0 4.16142 0.301142 4.46257 0.657064 4.46257H4.81821C5.72161 4.46257 6.57025 4.84581 7.14524 5.53022L15.6591 15.4128C16.5077 16.3983 17.7122 16.9458 18.9989 16.9458H23.7348L21.709 18.9717C21.4899 19.218 21.4899 19.6286 21.7363 19.9024C21.9826 20.1487 22.4207 20.1487 22.667 19.9024L25.8151 16.7543C26.0616 16.5077 26.0616 16.0972 25.8151 15.8234L25.8153 15.8234Z" fill="#D2F67B"/>
</svg>
