<svg width="25" height="25" viewBox="0 0 25 25" fill="none" xmlns="http://www.w3.org/2000/svg">
<path d="M12.5002 24.9999C19.4037 24.9999 25.0002 19.4035 25.0002 12.5C25.0002 5.59642 19.4037 0 12.5002 0C5.59667 0 0.000244141 5.59642 0.000244141 12.5C0.000244141 19.4035 5.59667 24.9999 12.5002 24.9999Z" fill="#DEFB48"/>
<path fill-rule="evenodd" clip-rule="evenodd" d="M11.1883 24.9357V11.7565H6.76548V7.57361H10.7396L15.2264 12.0783V24.6935C15.377 24.6595 15.5266 24.6228 15.6751 24.5835V16.6473L20.0979 12.0783V7.1875H12.7908L11.7652 7.95973L10.996 7.1875H6.25269L0 13.465C0.460421 19.4954 5.19989 24.3291 11.1883 24.9357ZM19.7133 7.57361H13.6881L17.6621 11.5635H19.7133V7.57361Z" fill="#0B0A15"/>
</svg>
